<?xml version="1.0" encoding="utf-8"?>
<!-- Generator: Adobe Illustrator 27.5.0, SVG Export Plug-In . SVG Version: 6.00 Build 0)  -->
<svg version="1.1" xmlns="http://www.w3.org/2000/svg" xmlns:xlink="http://www.w3.org/1999/xlink" x="0px" y="0px"
	 viewBox="-125 0 750 500" style="enable-background:new -125 0 750 500;" xml:space="preserve">
<g id="BACKGROUND">
	<rect x="-125" style="fill:#FFFFFF;" width="750" height="500"/>
</g>
<g id="OBJECTS" xmlns:serif="http://www.serif.com/">
	<path style="fill:#FBF8E1;" d="M-80.55,271.414c3.188-6.673,9.106-79.593,13.259-93.39c4.418-14.676,11.08-28.221,19.916-40.738
		C6.545,60.898,45.882,115.82,94.187,73.909c12.946-11.233,23.324-25.301,37.277-35.405C176.807,5.669,235.183,14.489,280.8,41.171
		c22.961,13.431,38.928,40.788,65.249,47.661c40.527,10.581,80.772-23.008,121.477-24.001
		c104.981-2.561,121.567,119.865,121.194,200.004c-0.086,18.516-2.369,37.18-7.773,54.923c-3.692,12.124-9.194,23.536-16,34.214
		c-51.337,80.538-114.062,15.473-180.032,36.766c-53.408,17.239-92.563,93.966-159.601,79.345
		c-51.747-11.285-58.791-50.743-110.9-60.7c-50.757-9.699-81.842-13.705-131.094,3.029
		C-104.77,442.339-111.077,335.317-80.55,271.414L-80.55,271.414z"/>
	<g>
		<g>
			<g>
				<path style="fill:#4E7B8E;" d="M496.941,310.2c-4.765-2.502-8.446-0.821-11.52,4.584c-4.102,7.214-9.811,25.222-5.764,27.611
					c4.635,2.736,12.457-3.158,17.048-11.903C501.295,321.746,501.707,312.702,496.941,310.2L496.941,310.2z"/>
				<path style="fill:#9DC1C7;" d="M492.664,309.069c-2.793,0.096-5.157,2.048-7.241,5.715c-4.102,7.214-9.811,25.222-5.764,27.611
					c0.189,0.112,0.383,0.209,0.583,0.292C480.655,326.415,488.279,314.57,492.664,309.069L492.664,309.069z"/>
				<g>
					<path style="fill:#9DC1C7;" d="M497.143,328.447c0,0-3.06-1.544-6.101-5.087c-0.41-0.478-0.355-1.199,0.123-1.61
						c0.478-0.41,1.199-0.355,1.61,0.123c2.702,3.148,5.404,4.54,5.404,4.54c0.561,0.286,0.785,0.974,0.499,1.535
						C498.392,328.509,497.705,328.733,497.143,328.447z"/>
					<path style="fill:#9DC1C7;" d="M495.578,331.788c0,0-3.06-1.544-6.101-5.087c-0.41-0.478-0.355-1.199,0.123-1.61
						c0.478-0.41,1.2-0.356,1.61,0.123c2.702,3.148,5.405,4.54,5.405,4.54c0.561,0.286,0.785,0.974,0.499,1.535
						C496.827,331.851,496.139,332.074,495.578,331.788z"/>
					<path style="fill:#9DC1C7;" d="M494.081,334.893c0,0-3.06-1.544-6.101-5.087c-0.41-0.478-0.355-1.199,0.122-1.61
						c0.479-0.41,1.2-0.355,1.61,0.123c2.702,3.148,5.404,4.54,5.404,4.54c0.561,0.286,0.785,0.974,0.499,1.535
						S494.643,335.179,494.081,334.893z"/>
				</g>
			</g>
			<g>
				<path style="fill:#4E7B8E;" d="M425.607,386.816c-5.062,1.831-6.304,5.681-4.387,11.595
					c2.559,7.895,12.002,24.257,16.495,22.881c5.146-1.576,6.072-11.326,2.712-20.615
					C437.068,391.39,430.669,384.986,425.607,386.816L425.607,386.816z"/>
				<path style="fill:#9DC1C7;" d="M421.884,389.211c-1.813,2.126-1.966,5.189-0.666,9.201c2.559,7.895,12.001,24.257,16.495,22.881
					c0.21-0.065,0.413-0.142,0.609-0.234C426.589,409.778,422.987,396.16,421.884,389.211L421.884,389.211z"/>
				<g>
					<path style="fill:#9DC1C7;" d="M439.212,398.976c0,0-3.204,1.217-7.871,1.072c-0.63-0.02-1.125-0.547-1.106-1.177
						c0.02-0.63,0.547-1.125,1.177-1.106c4.147,0.129,6.997-0.927,6.997-0.927c0.59-0.222,1.249,0.077,1.471,0.667
						C440.101,398.095,439.803,398.754,439.212,398.976L439.212,398.976z"/>
					<path style="fill:#9DC1C7;" d="M440.62,402.388c0,0-3.204,1.217-7.871,1.072c-0.63-0.02-1.125-0.547-1.106-1.177
						c0.02-0.63,0.547-1.125,1.177-1.106c4.147,0.129,6.997-0.927,6.997-0.927c0.59-0.222,1.249,0.078,1.47,0.667
						C441.509,401.508,441.21,402.167,440.62,402.388L440.62,402.388z"/>
					<path style="fill:#9DC1C7;" d="M441.904,405.586c0,0-3.204,1.217-7.871,1.072c-0.63-0.019-1.125-0.547-1.106-1.177
						c0.02-0.63,0.547-1.125,1.177-1.106c4.147,0.129,6.997-0.927,6.997-0.927c0.59-0.222,1.249,0.078,1.47,0.667
						C442.793,404.705,442.493,405.364,441.904,405.586L441.904,405.586z"/>
				</g>
			</g>
			<g>
				<path style="fill:#B3B3B3;" d="M485.217,249.702c-3.478,1.339-7.401,49.941-61.487,138.161c0,0,11.247,12.525,16.791,6.925
					c0,0,61.584-95.901,64.006-99.748c2.715-4.312,8.446-4.032,12.243-1.007c2.188,1.744,18.756,17.749,8.329,18.252
					c-10.428,0.503-20.476-1.348-26.884-1.527c-1.189-0.034-6.053,11.051-1.198,14.765c4.855,3.714,53.354,10.149,58.869,1.851
					c7.646-11.504-16.983-53.503-23.074-60.437C526.721,260.003,488.695,248.363,485.217,249.702z"/>
				<path style="fill:#9D9D9D;" d="M477.173,275.022c5.095-16.149,6.608-24.767,8.044-25.32
					c3.478-1.338,41.504,10.301,47.595,17.235c1.535,1.748,4.249,5.725,7.325,10.878c-10.218-3.351-20.783-5.358-31.551-5.881
					c-9.179-0.445-18.498,0.392-27.498,2.237C479.78,274.439,478.47,274.709,477.173,275.022L477.173,275.022z"/>
				<path style="fill:#767474;" d="M510.634,256.112c0.358,0.126,0.716,0.252,1.073,0.38c0.7,6.828,1.381,15.926,1.154,24.007
					c-0.025,0.883-0.061,1.755-0.109,2.61c0.044-0.005,0.09-0.004,0.137,0.003c1.433,0.222,2.508-0.355,3.309-1.481
					c0.883-1.242,1.446-3.103,1.795-5.32c0.784-4.978,0.462-11.707-0.107-17.485c0.359,0.144,0.716,0.288,1.068,0.432
					c0.543,5.737,0.827,12.314,0.055,17.213c-0.378,2.402-1.015,4.411-1.973,5.757c-1.039,1.462-2.446,2.19-4.305,1.902
					c-0.014-0.002-0.029-0.005-0.043-0.008c-0.195,2.83-0.531,5.457-1.049,7.722c-0.344-0.041-0.689-0.064-1.031-0.065
					c0.745-3.166,1.105-7.097,1.223-11.308C512.064,272.242,511.348,262.952,510.634,256.112z"/>
				<path style="fill:#9D9D9D;" d="M514.422,329.671c-8.668-1.218-15.706-2.849-17.404-4.149
					c-4.855-3.714,0.009-14.798,1.198-14.765c6.177,0.173,15.737,1.899,25.759,1.573c-0.249,0.243-0.493,0.492-0.732,0.746
					c-2.337,2.477-4.386,5.3-6.041,8.276C515.641,324.161,514.742,326.833,514.422,329.671L514.422,329.671z"/>
			</g>
		</g>
		<g>
			<path style="fill:#FECBA5;" d="M560.101,216.377c0.198-2.259,9.848-22.449,10.155-29.23l9.418,3.893
				c-1.724,13.125-4.994,24.961-8.911,36.258C570.764,227.298,559.903,218.637,560.101,216.377z"/>
			<path style="fill:#E58C6C;" d="M563.909,206.491c1.467,3.443,5.112,8.099,10.666,8.809c-1.167,4.086-2.449,8.074-3.809,11.998
				c0,0-10.861-8.661-10.663-10.921C560.184,215.437,561.905,211.387,563.909,206.491z"/>
			<path style="fill:#FECBA5;" d="M579.864,191.546c-2.129,1.451-5.994,2.67-8.312,1.115c-2.991-2.006-7.855-11.118-9.632-13.154
				c-0.55-0.63-1.994-2.461-1.635-3.385c0.803-2.072,7.338,3.704,7.374,3.668c0.237-0.235,0.726-10.845,2.68-11.583
				c2.245-0.847,2.059,7.739,2.389,7.717c0.363-0.024,2.387-8.145,5.198-7.662c1.924,0.33-0.147,8.703,0.065,8.824
				c0.08,0.046,5.259-6,6.809-4.63c1.632,1.442-2.625,6.083-2.889,7.879c-0.024,0.162,5.684-3.013,6.262-1.385
				c0.347,0.976-3.33,4.34-3.847,5.008C582.248,186.64,581.993,190.096,579.864,191.546L579.864,191.546z"/>
		</g>
		<g>
			<path style="fill:#FECBA5;" d="M443.854,154.627c0,0-5.464-28.486-5.053-40.82l-11.252,1.907c0,0-8.082,47.09,7.837,48.863
				C448.718,166.061,443.405,152.449,443.854,154.627L443.854,154.627z"/>
			<path style="fill:#E58C6C;" d="M425.632,144.853c0.714,1.408,4.522,7.307,17.319,4.818c0.477,2.714,0.82,4.526,0.889,4.889
				c0.003,0.02,0.007,0.042,0.013,0.067l-0.013-0.067c-0.32-1.81,4.729,11.485-8.455,10.016
				C428.621,163.823,426.19,154.884,425.632,144.853L425.632,144.853z"/>
			<g>
				<path style="fill:#FECBA5;" d="M437.074,116.544c0.974-0.571,2.326-1.908,4.58-5.434c1.559-2.438,1.482-4.107,1.24-5.471
					c-0.532-2.999-3.726-1.962-3.934-2.306c-0.197-0.324-0.176-6.57-5.345-6.218c-1.994,0.135-1.992,1.785-1.992,1.785
					s-1.314-1.618-3.427-1.06c-2.058,0.544-2.232,3.044-2.232,3.044s-1.45-0.741-2.499,1.025c-0.784,1.32-0.229,2.625-0.229,2.625
					s-1.072-0.947-2.19,0.855c-1.126,1.815-0.906,2.487,0.462,4.917c1.257,2.232,4.381,6.191,6.537,7.085
					C431.808,118.952,434.395,118.114,437.074,116.544z"/>
				<path style="fill:#D06644;" d="M434.017,104.352c1.54-0.665,3.24-0.986,4.886-1.295c0.021,0.146,0.04,0.243,0.06,0.276
					c0.019,0.032,0.063,0.051,0.128,0.064c-0.518,0.114-1.14,0.248-1.42,0.322c-0.507,0.134-1.011,0.274-1.508,0.44
					c-0.42,0.141-0.841,0.277-1.252,0.442c-1.274,0.512-2.752,1.102-3.075,2.583c-0.123,0.563-0.031,1.035,0.439,1.435
					c0.334,0.285,0.822,0.464,1.235,0.554c1.098,0.238,2.205,0.338,3.326,0.398c0.387,0.021,0.778,0.041,1.165,0.014
					c0.144-0.009-1.068,0.233-1.655,0.248c-0.694,0.019-1.691,0.048-2.625-0.095c-0.091,0.067-0.166,0.126-0.191,0.145
					c-0.717,0.544-1.277,1.318-1.619,2.147c-0.109,0.263-0.369,0.956-0.347,0.788c0.108-0.813,0.435-2.124,0.917-2.79
					c0.109-0.151,0.241-0.336,0.396-0.479c-0.793-0.248-1.437-0.691-1.645-1.475c-0.158,0.029-0.339,0.017-0.454,0.003
					c-0.117-0.014-0.234-0.042-0.351-0.081c-0.044,0.091-0.127,0.194-0.185,0.313c-0.068,0.137-0.146,0.267-0.234,0.393
					c-0.496,0.715-1.459,0.886-2.293,0.703c-0.044,0.382-0.198,0.801-0.329,1.151c-0.156,0.414-0.352,0.837-0.643,1.174
					c-0.493,0.569-1.367,0.476-1.995,0.214c-1.298-0.542-2.267-1.543-3.001-2.717c-0.01-0.01-0.02-0.02-0.03-0.031l0.016,0.008
					c0.005,0.007,0.009,0.015,0.014,0.023c0.206,0.211,0.407,0.426,0.617,0.632c0.777,0.762,2.007,1.817,3.198,1.701
					c0.847-0.082,1.421-1.096,1.62-1.828c0.042-0.154,0.036-0.323,0.051-0.482c-0.123-0.052-0.239-0.112-0.347-0.18
					c-1.789-1.132-3.315-2.889-4.277-4.785c0.304,0.021,0.524,0.164,0.601,0.222c0.173,0.302,0.389,0.597,0.543,0.801
					c1.022,1.36,2.279,3.103,4.022,3.507c0.45,0.105,1.046,0.16,1.47-0.071c0.291-0.159,0.493-0.447,0.674-0.716
					c0.018-0.027,0.06-0.124,0.105-0.214c-0.455-0.248-0.879-0.626-1.201-0.945c-0.999-0.99-1.644-2.361-2.273-3.59
					c-0.41-0.802-0.81-1.629-0.987-2.523c0.248,0.045,0.405,0.125,0.405,0.125s0.001-0.025,0.007-0.071
					c0.013,0.043,0.027,0.086,0.041,0.128c0.216,0.664,0.532,1.277,0.847,1.899c0.66,1.298,1.382,2.524,2.32,3.644
					c0.367,0.438,0.866,1.041,1.455,1.184c0.168,0.04,0.353,0.035,0.528,0c-0.002-0.038-0.004-0.077-0.005-0.117
					c-0.027-1.352,0.864-2.151,1.961-2.759c0.077-0.043,0.155-0.084,0.233-0.125c-0.053-0.415-0.165-0.809-0.248-1.13
					c-0.301-1.156-0.621-2.359-1.039-3.477c-0.154-0.41-0.292-0.826-0.438-1.239c0.013-0.137,0.059-0.433,0.232-0.741
					c0.417,0.81,0.716,1.697,1.001,2.559c0.206,0.621,0.377,1.251,0.553,1.882c0.139,0.497,0.305,0.992,0.484,1.476
					C433.938,104.098,433.983,104.226,434.017,104.352L434.017,104.352z"/>
			</g>
		</g>
		<g>
			<path style="fill:#9DC1C7;" d="M480.659,255.921c0,0-3.534,11.489-0.543,11.292c5.244-0.346,36.057,0.67,57.839,5.961
				c0,0,3.523,1.242-3.12-6.346C528.191,259.241,485.695,252.705,480.659,255.921L480.659,255.921z"/>
			<g>
				<defs>
					<path id="SVGID_1_" d="M480.659,255.921c0,0-3.534,11.489-0.543,11.292c5.244-0.346,36.057,0.67,57.839,5.961
						c0,0,3.523,1.242-3.12-6.346C528.191,259.241,485.695,252.705,480.659,255.921L480.659,255.921z"/>
				</defs>
				<clipPath id="SVGID_00000044867316115405746900000002541011903073039280_">
					<use xlink:href="#SVGID_1_"  style="overflow:visible;"/>
				</clipPath>
				<g style="clip-path:url(#SVGID_00000044867316115405746900000002541011903073039280_);">
					<g>
						<path style="fill:#5B8A9E;" d="M484.669,256.176l-0.281,13.975c-0.005,0.284,0.22,0.519,0.504,0.525
							c0.284,0.006,0.519-0.22,0.525-0.504l0.281-13.975c0.006-0.284-0.22-0.519-0.504-0.525
							C484.91,255.666,484.675,255.892,484.669,256.176z"/>
						<path style="fill:#5B8A9E;" d="M493.464,257.647l-0.456,13.97c-0.009,0.284,0.214,0.522,0.497,0.531
							c0.284,0.009,0.522-0.214,0.531-0.497l0.456-13.971c0.009-0.284-0.213-0.522-0.497-0.531
							C493.711,257.141,493.473,257.364,493.464,257.647L493.464,257.647z"/>
						<path style="fill:#5B8A9E;" d="M502.807,257.643l-0.742,13.958c-0.015,0.283,0.203,0.526,0.486,0.541
							c0.284,0.015,0.526-0.203,0.541-0.486l0.742-13.958c0.015-0.283-0.203-0.526-0.486-0.541
							C503.065,257.142,502.822,257.359,502.807,257.643z"/>
						<path style="fill:#5B8A9E;" d="M510.328,259.153l-0.491,13.969c-0.01,0.284,0.212,0.522,0.496,0.532
							c0.284,0.01,0.522-0.212,0.532-0.496l0.491-13.969c0.01-0.284-0.212-0.523-0.496-0.532
							C510.577,258.647,510.338,258.87,510.328,259.153L510.328,259.153z"/>
						<path style="fill:#5B8A9E;" d="M518.506,259.266l-0.649,13.962c-0.013,0.284,0.206,0.525,0.49,0.538
							c0.284,0.013,0.524-0.206,0.538-0.49l0.649-13.962c0.013-0.284-0.206-0.525-0.49-0.538
							C518.76,258.762,518.519,258.982,518.506,259.266z"/>
						<path style="fill:#5B8A9E;" d="M526.634,260.845l0.599,13.965c0.012,0.284,0.252,0.504,0.536,0.492
							c0.283-0.012,0.504-0.252,0.492-0.536l-0.598-13.965c-0.012-0.283-0.252-0.504-0.536-0.492
							C526.843,260.321,526.623,260.561,526.634,260.845L526.634,260.845z"/>
						<path style="fill:#5B8A9E;" d="M533.657,264.121l0.541,13.967c0.011,0.283,0.25,0.505,0.534,0.494
							c0.284-0.011,0.505-0.25,0.494-0.534l-0.541-13.967c-0.011-0.284-0.25-0.505-0.534-0.494
							C533.867,263.598,533.646,263.837,533.657,264.121z"/>
					</g>
				</g>
			</g>
			<g>
				<path style="fill:#4E7B8E;" d="M443.81,149.282c0,0,33.186,25.369,48.4,30.745c14.65,5.177,36.117,13.191,48.753,26.117
					c5.894,6.029,12.112,13.33,13.225,12.071c1.716-1.941,2.134-3.786,3.534-4.324c3.08-1.184,15.02,7.663,15.535,13.824
					c0.479,5.728-3.778,22.597-18.417,16.15c-16.343-7.197-20.67-11.935-20.67-11.935s4.798,22.851,3.332,31.642
					c-0.494,2.964-0.974,4.772-2.339,4.031c-7.893-4.29-47.411-10.851-55.39-8.378c0,0-6.862-4.794-1.725-49.143
					c0,0-12.388-11.411-24.68-21.66c-9.584-7.991-16.995-19.021-20.057-20.195C430.249,167.054,437.729,153.612,443.81,149.282
					L443.81,149.282z"/>
				<path style="fill:#9DC1C7;" d="M426.679,154.441c0,0,12.589,0.905,16.075-5.769c0,0,4.599-0.3,7.313,3.912
					c3.615,5.609-13.681,18.867-17.587,15.298C425.927,161.892,424.677,156.341,426.679,154.441L426.679,154.441z"/>
				<path style="fill:#9DC1C7;" d="M562.323,209.51c0,0-5.886,3.208-4.346,7.944c1.54,4.735,13.002,12.453,15.083,9.341
					c2.081-3.112,1.256-8.375,0.785-9.306C573.374,216.557,567.02,216.756,562.323,209.51L562.323,209.51z"/>
				<g>
					<path style="fill:#3E6581;" d="M553.81,219.203c0,0-1.388,8.656,2.551,15.004C554.882,229.281,554.041,224.278,553.81,219.203z
						"/>
					<path style="fill:#3E6581;" d="M534.17,231.93c-0.287-1.165-4.376-17.722-5.654-21.202c-1.325-3.607,6.068,11.351,9.528,15.398
						c3.467,4.055,17.055,18.315,28.204,17.676c-2.783,1.767-6.516,2.217-11.408,0.062
						C538.599,236.713,534.225,231.99,534.17,231.93z"/>
					<path style="fill:#3E6581;" d="M484.264,235.268c0,0,13.733,21.164,42.125,22.436
						C526.389,257.704,506.927,255.105,484.264,235.268z"/>
					<path style="fill:#3E6581;" d="M479.553,208.552c0,0,5.463-4.948,8.153-11.394L479.553,208.552z"/>
					<path style="fill:#3E6581;" d="M483.627,187.901c0,0,0.849,12.348-4.076,18.514
						C479.551,206.415,483.54,194.257,483.627,187.901z"/>
				</g>
			</g>
		</g>
		<g>
			<path style="fill:#9DC1C7;" d="M494.462,181.003c0,0-15.857,2.644,17.22,26.236c0,0,12.016-12.809,3.227-17.514
				C502.536,183.104,494.462,181.003,494.462,181.003z"/>
			<path style="fill:#E7F2F3;" d="M495.973,182.104c0,0-11.693,0.397,15.249,21.683c0,0,8.94-9.508,1.843-14.073
				C503.118,183.315,495.973,182.104,495.973,182.104z"/>
			<path style="fill:#FECBA5;" d="M494.417,171.65c0,0,1.142,6.348-0.147,11.25c-0.472,1.795,9.801,12.274,14.846,13.812
				c3.026,0.922,4.583-2.163,4.693-6.294c0,0-5.453-6.613-4.165-14.203C510.497,171.187,494.417,171.65,494.417,171.65
				L494.417,171.65z"/>
			<path style="fill:#E58C6C;" d="M494.881,176.999c-0.036-2.97-0.464-5.349-0.464-5.349s16.079-0.463,15.227,4.565
				c-0.515,3.032,0.046,5.907,0.906,8.267C504.967,183.964,498.422,179.644,494.881,176.999z"/>
		</g>
		<g>
			<path style="fill:#E58C6C;" d="M520.402,153.814c2.862,0.357,4.867,3.208,4.475,6.363c-0.393,3.156-3.036,5.429-5.898,5.073
				c-2.862-0.357-4.867-3.208-4.475-6.363C514.898,155.731,517.54,153.458,520.402,153.814z"/>
			<path style="fill:#E09741;" d="M519.355,140.638c0,0,3.343,10.722-0.119,17.814c-3.462,7.092-9.078-8.507-9.078-8.507
				l-3.958-7.012L519.355,140.638L519.355,140.638z"/>
			<g>
				<path style="fill:#FECBA5;" d="M496.318,134.545c10.108-2.487,21.07,6.337,23.296,18.32c1.967,10.592-1.621,22.048-7.836,24.209
					c-9.832,3.42-23.252-2.245-27.477-13.782C480.112,151.848,486.21,137.032,496.318,134.545z"/>
				<path style="fill:#E58C6C;" d="M484.042,162.543c-3.666-11.333,2.386-25.565,12.275-27.998
					c8.477-2.086,17.554,3.783,21.575,12.798c-0.678,0.34-0.674-0.53-1.226-0.434c-4.901,0.848-11.761-3.036-15.21-0.607
					c-4.874,3.434-11.338,2.138-11.338,2.138c-0.25,3.628-5.282,14.43-5.282,14.43S484.547,162.767,484.042,162.543L484.042,162.543
					z"/>
			</g>
			<g>
				<path style="fill:#FDB44E;" d="M485.341,166.46c0,0,3.202-13.346,3.171-20.058c0,0,6.925,1.135,10.411-0.605
					c5.022-2.506,8.921-0.731,10.421-0.488c4.421,0.716,10.645,1.523,15.329-7.398c3.959-7.541-2.316-12.628-11.604-10.077
					c-4.94,1.356-8.369-0.222-12.315-1.624c-11.839-4.207-15.352,2.699-16.449,8.881
					C484.305,135.091,467.714,145.586,485.341,166.46z"/>
				<path style="fill:#E09741;" d="M480.718,138.506c3.28,2.704,9.736,6.906,16.642,5.218c9.911-2.423,12.195-0.72,14.901,0.027
					c1.494,0.412,3.52,1.105,5.977,0.965c-3.135,1.458-6.32,1.01-8.893,0.594c-1.5-0.242-5.399-2.017-10.421,0.488
					c-3.486,1.74-10.411,0.605-10.411,0.605c0.032,6.712-3.171,20.058-3.171,20.058
					C473.522,152.464,477.087,143.134,480.718,138.506L480.718,138.506z"/>
			</g>
			<path style="fill:#FECBA5;" d="M481.484,159.93c2.367-1.648,5.764-0.867,7.581,1.743c1.817,2.61,1.37,6.067-0.997,7.715
				c-2.367,1.648-5.764,0.867-7.581-1.743C478.67,165.035,479.116,161.578,481.484,159.93z"/>
			<g>
				<path style="fill:#802419;" d="M498.793,154.045c-0.592,0.087-0.963,0.897-0.829,1.809c0.134,0.911,0.723,1.581,1.314,1.494
					c0.592-0.087,0.964-0.897,0.83-1.809C499.973,154.627,499.384,153.958,498.793,154.045L498.793,154.045z"/>
				<path style="fill:#802419;" d="M513.005,152.976c-0.597,0.036-1.036,0.813-0.979,1.732c0.056,0.92,0.587,1.636,1.183,1.6
					c0.597-0.036,1.035-0.813,0.979-1.732S513.601,152.939,513.005,152.976z"/>
				<path style="fill:#802419;" d="M502.457,151.264c0,0-3.783-6.492-8.19,0.295C494.267,151.559,498.552,149.197,502.457,151.264z"
					/>
				<path style="fill:#802419;" d="M517.237,150.121c0,0-3.525-5.9-7.36,0.318C509.876,150.439,514.028,148.158,517.237,150.121z"/>
				<path style="fill:#802419;" d="M508.936,153.484c0,0-0.683,4.894,0.052,5.643c1.209,1.232,0.924,1.639-0.037,2.102
					c0,0,4.808-0.915,2.449-2.636C509.278,157.045,508.936,153.484,508.936,153.484L508.936,153.484z"/>
				<g>
					<path style="fill:#802419;" d="M510.457,163.793c-1.344-0.274-6.612-1.485-8.418-1.697c-1.831-0.215-1.998,7.032,2.625,8.211
						C508.985,171.408,512.227,164.154,510.457,163.793z"/>
					<path style="fill:#FFFFFF;" d="M510.911,164.287c-0.065-0.268-0.213-0.445-0.455-0.494c-1.344-0.274-6.612-1.485-8.418-1.697
						c-0.348-0.041-0.636,0.188-0.843,0.595c0.552,1.035,1.985,1.692,5.254,2.398C508.981,165.635,510.266,164.988,510.911,164.287z
						"/>
				</g>
			</g>
		</g>
	</g>
	<g>
		<g>
			<g>
				<path style="fill:#EC9A6F;" d="M301.588,366.748c0,0,17.09,54.888,27.248,47.472c10.158-7.416,25.279-56.728,25.279-56.728
					l-9.98-2.675L329.7,382.312l-4.031-23.555L301.588,366.748L301.588,366.748z"/>
				<path style="fill:#D06644;" d="M330.837,380.145l13.297-25.328l9.98,2.675c0,0-9.938,32.409-19.113,48.632
					C336.089,395.006,332.298,383.915,330.837,380.145z"/>
				<path style="fill:#D06644;" d="M324.613,359.107c0.419,0.443,0.89,0.972,1.384,1.571l2.931,17.127
					c-5.346,1.48-17.922-1.937-25.048-4.143c-1.439-4.173-2.292-6.915-2.292-6.915L324.613,359.107L324.613,359.107z"/>
			</g>
			<g>
				<path style="fill:#EC9A6F;" d="M335.374,370.871c0,0,27.06,41.491,36.853,32.273c9.792-9.218,12.307-58.342,12.307-58.342
					l-8.341-4.765l-7.785,30.878l-12.592-16.682L335.374,370.871L335.374,370.871z"/>
				<path style="fill:#D06644;" d="M362.655,363.292c-5.83,5.056-17.846,10.435-23.647,12.869c-2.251-3.172-3.632-5.289-3.632-5.289
					l20.441-16.638L362.655,363.292z"/>
				<g>
					<path style="fill:#EC9A6F;" d="M374.388,337.366c1.484-5.028,3.346-6.695,7.254-5.156c7.934,3.124,30.083,20.097,25.919,22.736
						c-4.703,2.981-12.512,0.884-19.476-2.342C378.876,348.337,372.779,342.817,374.388,337.366z"/>
					<path style="fill:#EC9A6F;" d="M374.98,335.593c-0.209,0.535-0.406,1.126-0.597,1.772c-1.609,5.452,4.488,10.971,13.697,15.237
						c4.384,2.031,9.102,3.614,13.171,3.759C399.446,348.647,381.896,339.071,374.98,335.593L374.98,335.593z"/>
					<path style="fill:#629482;" d="M401.252,356.362c2.394,0.095,4.562-0.312,6.305-1.417c4.163-2.639-17.985-19.612-25.919-22.736
						c-3.405-1.341-5.257-0.247-6.657,3.384C381.895,339.071,399.458,348.644,401.252,356.362L401.252,356.362z"/>
				</g>
			</g>
			<g>
				<path style="fill:#FDB44E;" d="M297.814,322.779c0,0-7.452,37.414-1.171,45.354c3.154,3.987,27.497,10.991,33.777,5.899
					l0.35-4.587l5.285,4.863c0,0,27.886-8.589,28.127-20.389c0.181-8.867-17.222-17.097-20.428-24.091
					C340.547,322.833,297.814,322.779,297.814,322.779L297.814,322.779z"/>
				<path style="fill:#D88E4A;" d="M296.636,329.427c0.653-4.017,1.178-6.648,1.178-6.648s42.734,0.054,45.94,7.049
					c0.816,1.781,2.554,3.643,4.686,5.574C334.569,345.178,308.998,335.251,296.636,329.427L296.636,329.427z"/>
				<path style="fill:#B96634;" d="M317.738,353.848c0.762,3.445,1.965,6.685,3.8,9.34c0.161,0.233,0.103,0.554-0.13,0.715
					c-0.233,0.161-0.554,0.103-0.715-0.131c-3.488-5.045-4.793-12.13-5.082-18.821c-0.431-9.954,1.367-19.018,1.367-19.018
					c0.055-0.279,0.326-0.46,0.605-0.405c0.278,0.055,0.46,0.326,0.404,0.605c0,0-1.773,8.948-1.348,18.774
					c0.114,2.631,0.384,5.325,0.89,7.927c1.314-0.138,2.735-0.981,3.683-4.081c0.918-3.003,2.657-21.494,2.657-21.494
					c0.027-0.283,0.277-0.49,0.56-0.464c0.282,0.027,0.49,0.277,0.464,0.56c0,0-1.771,18.666-2.698,21.698
					c-0.618,2.02-1.439,3.203-2.298,3.893C319.19,353.514,318.449,353.762,317.738,353.848L317.738,353.848z"/>
				<path style="fill:#D88E4A;" d="M329.928,374.383c-0.903-2.739-1.801-3.929-5.334-6.776c-2.889-2.328-14.323-7.614-9.085-6.418
					c5.71,1.304,9.916,1.911,10.473,2.231c0.556,0.32,4.841,6.054,4.841,6.054l0.005,0.026l-0.059-0.054l-0.35,4.587
					C330.266,374.157,330.102,374.274,329.928,374.383L329.928,374.383z"/>
			</g>
		</g>
		<g>
			<g>
				<path style="fill:#9ECBB4;" d="M338.826,261.65c0,0-16.629-43.575,2.078-83.534c0,0,6.291-8.315,1.287-13.249
					c-3.729-3.676-14.793-8.169-20.187,0.558c-7.191,11.634-19.139,47.074-16.174,97.628c0,0-24.199,52.863-8.478,63.041
					c9.527,6.167,40.569,12.804,45.122,6.828c0,0,10.112,6.195,20.787-10.523c11.374-17.813,13.173-17.864,15.183-21.859
					c2.01-3.995-4.538-13.922-10.022-14.81c-4.555-0.737-11.487,9.02-11.487,9.02s6.813-15.601,0.499-22.352
					C347.335,261.601,338.826,261.65,338.826,261.65L338.826,261.65z"/>
				<path style="fill:#629482;" d="M323.57,246.606c0,0-12.382,7.439-15.87,14.228C307.701,260.834,309.844,251.777,323.57,246.606z
					"/>
				<path style="fill:#C7DCD3;" d="M371.978,286.145c0,0-5.322,0.618-5.141,3.011c0.341,4.507,7.646,11.769,9.198,10.833
					c2.909-1.754,3.928-5.459,3.928-5.459L371.978,286.145L371.978,286.145z"/>
				<path style="fill:#C7DCD3;" d="M330.798,158.135c0,0-4.168,3.366-2.737,5.292c2.696,3.628,12.831,5.9,13.563,4.242
					c0.732-1.657,0.777-5.124,0.777-5.124L330.798,158.135z"/>
				<path style="fill:#629482;" d="M342.227,333.209c-0.105-0.014-0.186-0.029-0.198-0.033c-20.475-7.168-1.055-43.367-1.055-43.367
					s-4.895,11.344-6.463,25.936c-1.052,9.784,5.881,15.553,7.961,17.182C342.397,333.024,342.315,333.118,342.227,333.209
					L342.227,333.209z"/>
				<path style="fill:#629482;" d="M357.497,293.34c-0.28,0.753-0.488,1.25-0.555,1.406c-1.84,2.084-7.968,9.095-8.742,10.929
					c-0.912,2.163-3.013-0.196-1.818,6.643c0,0-4.392-5.05-0.031-7.154C346.352,305.166,353.113,296.993,357.497,293.34
					L357.497,293.34z"/>
			</g>
			<path style="fill:#EC9A6F;" d="M332.369,161.842c1.876,1.766,5.501,3.576,8.035,2.403c3.268-1.514,9.499-9.751,11.573-11.483
				c0.642-0.536,2.355-2.119,2.146-3.087c-0.47-2.172-7.828,2.509-7.858,2.468c-0.198-0.269,0.981-10.825-0.833-11.86
				c-2.085-1.189-3.245,7.321-3.568,7.247c-0.355-0.081-1.082-8.419-3.934-8.382c-1.951,0.025-1.218,8.619-1.446,8.705
				c-0.086,0.033-4.254-6.75-5.999-5.639c-1.837,1.169,1.64,6.419,1.62,8.234c-0.002,0.164-5.142-3.866-5.968-2.348
				c-0.495,0.91,2.609,4.807,3.016,5.548C330.783,156.623,330.493,160.076,332.369,161.842z"/>
			<g>
				<path style="fill:#EC9A6F;" d="M372.235,287.751c-0.27-1.097-0.252-2.998,0.707-7.071c0.663-2.817,1.913-3.925,3.06-4.702
					c2.522-1.708,4.003,1.306,4.395,1.216c0.37-0.086,4.836-4.451,8.185-0.498c1.292,1.525,0.108,2.673,0.108,2.673
					s2.076-0.185,3.148,1.72c1.043,1.855-0.628,3.722-0.628,3.722s1.541,0.523,1.006,2.507c-0.4,1.482-1.724,1.993-1.724,1.993
					s1.426,0.11,0.913,2.167c-0.517,2.073-1.153,2.382-3.849,3.094c-2.477,0.654-7.493,1.17-9.636,0.247
					C374.176,293.206,372.975,290.767,372.235,287.751L372.235,287.751z"/>
				<path style="fill:#D06644;" d="M383.114,281.453c-0.596-1.568-1.55-3.011-2.476-4.407c-0.119,0.086-0.201,0.141-0.24,0.15
					c-0.036,0.008-0.081-0.01-0.135-0.048c0.28,0.451,0.616,0.991,0.758,1.243c0.257,0.457,0.508,0.916,0.735,1.389
					c0.191,0.399,0.388,0.797,0.555,1.206c0.52,1.271,1.126,2.741,0.289,4.005c-0.319,0.481-0.72,0.744-1.335,0.685
					c-0.436-0.041-0.906-0.266-1.258-0.5c-0.936-0.621-1.779-1.346-2.603-2.108c-0.284-0.263-0.571-0.53-0.822-0.826
					c-0.093-0.11,0.577,0.928,0.975,1.36c0.471,0.511,1.144,1.247,1.898,1.817c0.015,0.112,0.025,0.205,0.029,0.238
					c0.11,0.893-0.055,1.834-0.412,2.657c-0.113,0.261-0.429,0.93-0.324,0.797c0.508-0.644,1.22-1.793,1.363-2.602
					c0.033-0.184,0.073-0.407,0.068-0.618c0.73,0.396,1.497,0.549,2.204,0.153c0.089,0.133,0.224,0.254,0.315,0.328
					c0.091,0.075,0.194,0.139,0.303,0.195c-0.034,0.095-0.051,0.226-0.095,0.351c-0.051,0.144-0.09,0.291-0.119,0.441
					c-0.167,0.854,0.381,1.664,1.094,2.134c-0.243,0.298-0.437,0.701-0.597,1.039c-0.189,0.4-0.355,0.835-0.394,1.28
					c-0.065,0.75,0.611,1.312,1.236,1.58c1.293,0.554,2.686,0.551,4.04,0.26c0.014,0,0.028,0,0.043,0l-0.016-0.006
					c-0.009,0.002-0.018,0.003-0.026,0.005c-0.295-0.001-0.59,0.005-0.884-0.002c-1.087-0.026-2.701-0.174-3.448-1.109
					c-0.531-0.665-0.204-1.783,0.182-2.435c0.082-0.137,0.207-0.251,0.31-0.372c0.123,0.052,0.247,0.093,0.37,0.123
					c2.058,0.495,4.382,0.365,6.412-0.265c-0.227-0.203-0.483-0.261-0.578-0.277c-0.337,0.086-0.7,0.137-0.953,0.169
					c-1.687,0.214-3.814,0.527-5.318-0.442c-0.389-0.25-0.844-0.638-0.973-1.104c-0.089-0.319-0.024-0.665,0.043-0.982
					c0.007-0.032,0.047-0.13,0.081-0.224c0.495,0.154,1.062,0.195,1.515,0.203c1.406,0.027,2.839-0.466,4.159-0.871
					c0.861-0.265,1.733-0.553,2.497-1.05c-0.205-0.147-0.372-0.203-0.372-0.203s0.017-0.019,0.046-0.055
					c-0.04,0.021-0.08,0.041-0.121,0.061c-0.627,0.307-1.287,0.508-1.953,0.715c-1.391,0.431-2.774,0.767-4.23,0.874
					c-0.571,0.042-1.351,0.105-1.863-0.219c-0.146-0.092-0.271-0.229-0.368-0.379c0.029-0.025,0.058-0.051,0.087-0.078
					c0.989-0.922,0.941-2.118,0.613-3.329c-0.023-0.086-0.047-0.17-0.073-0.254c0.335-0.251,0.695-0.445,0.984-0.609
					c1.039-0.59,2.124-1.198,3.217-1.677c0.401-0.176,0.796-0.365,1.194-0.55c0.09-0.105,0.27-0.344,0.37-0.682
					c-0.872,0.266-1.716,0.669-2.533,1.065c-0.589,0.285-1.16,0.602-1.735,0.915c-0.453,0.247-0.923,0.473-1.396,0.681
					C383.352,281.332,383.228,281.39,383.114,281.453L383.114,281.453z"/>
			</g>
		</g>
		<g>
			<g>
				<g>
					<path style="fill:#D06644;" d="M333.751,245.554c2.355,9.782,5.074,16.095,5.074,16.095s4.703-0.027,11.265,4.396
						c-1.832,1.424-4.112,3.238-6.825,5.473c-1.981,1.633-7.971,7.627-17.413,3.639c-9.011-3.806-7.854-14.891,3.695-26.946
						C330.895,246.806,332.308,245.959,333.751,245.554L333.751,245.554z"/>
					<path style="fill:#EC9A6F;" d="M336.054,253.884c1.531,4.885,2.771,7.765,2.771,7.765s4.703-0.027,11.265,4.395
						c-1.832,1.424-4.112,3.238-6.825,5.474c-1.69,1.392-6.294,5.957-13.468,4.797C318.731,265.364,329.088,257.32,336.054,253.884
						L336.054,253.884z"/>
				</g>
				<g>
					<path style="fill:#EC9A6F;" d="M345.477,257.505c0,0-4.918,2.76-3.487,6.366c1.691,4.263-17.281,5.379-15.428-0.715
						c0.689-2.268,3.235-3.958,5.773-10.817C334.658,246.06,345.477,257.505,345.477,257.505z"/>
					<path style="fill:#D06644;" d="M329.725,257.926c0.816-1.386,1.714-3.164,2.61-5.587c2.323-6.279,13.143,5.167,13.143,5.167
						s-3.26,1.83-3.7,4.455C336.457,261.932,331.903,259.387,329.725,257.926L329.725,257.926z"/>
				</g>
			</g>
			<g>
				<path style="fill:#191919;" d="M327.497,237.4c0,0-1.197,2.993-4.839,5.366c-2.529,1.649-4.787,3.64-5.621,5.485
					c-0.834,1.845,5.271-0.258,8.014,2.309c2.743,2.567,6.901,3.355,9.346,2.213c2.445-1.142,2.634-7.204,2.634-7.204L327.497,237.4
					z"/>
				<path style="fill:#D06644;" d="M332.906,231.214c2.596,1.734,3.248,5.32,1.457,8.002c-1.792,2.683-5.355,3.452-7.95,1.718
					c-2.596-1.734-3.249-5.32-1.457-8.002C326.748,230.25,330.31,229.48,332.906,231.214z"/>
				<path style="fill:#EC9A6F;" d="M363.296,216.874c10.009,6.166,10.925,21.546,3.705,33.265
					c-7.22,11.719-25.375,13.635-34.152,6.803c-6.841-5.325-9.434-15.251-2.213-26.97
					C337.857,218.253,353.287,210.707,363.296,216.874z"/>
				<path style="fill:#D06644;" d="M331.749,228.289c7.597-10.739,22.025-17.282,31.547-11.416
					c10.009,6.166,10.925,21.546,3.705,33.265c-3.857,6.26-10.835,9.723-17.836,10.549c1.774-3.19,8.573-15.593,8.592-18.352
					c0,0-9.527-13.838-7.843-20.487C349.914,221.849,338.725,223.118,331.749,228.289L331.749,228.289z"/>
				<g>
					<path style="fill:#2D2C2A;" d="M350.855,219.396c0,0,1.764,13.601,8.824,21.444c0,0-6.702,17.241-16.529,22.445
						c0,0,9.076,2.118,12.217,1.152c4.554-1.401,4.808,2.135,7.878,2.24c3.75,0.127,29.127-35.152,2.663-50.811
						c-27.03-15.993-32.967-0.89-35.356,5.92c-2.027,5.778-0.282,9.031-0.282,9.031S338.27,218.689,350.855,219.396z"/>
					<path style="fill:#191919;" d="M377.8,236.948c-0.432,14.793-12.106,29.812-14.556,29.729c-3.07-0.104-3.324-3.641-7.878-2.24
						c-3.141,0.966-12.217-1.152-12.217-1.152c9.827-5.204,16.529-22.445,16.529-22.445c-1.781-1.979-3.225-4.324-4.388-6.724
						C364.483,236.257,372.802,236.825,377.8,236.948z M330.009,223.616c1.39,0.936,2.813,1.806,4.259,2.616
						c-2.58,2.436-3.999,4.585-3.999,4.585S328.891,228.246,330.009,223.616z"/>
				</g>
				<g>
					<path style="fill:#56181D;" d="M346.955,234.38c0,0,8.116-4.396,5.505,4.917C352.46,239.297,353.379,233.301,346.955,234.38z"
						/>
					<path style="fill:#56181D;" d="M332.939,229.615c0,0,7.144-7.537,7.034,2.27C339.973,231.884,338.234,225.929,332.939,229.615z
						"/>
					<path style="fill:#56181D;" d="M339.133,236.582c0.029,0.646-0.728,2.675-1.847,3.213c-1.015,0.488-1.125,1.873-0.881,2.661
						c0,0-1.973-2.723-0.365-3.222C338.064,238.605,339.116,236.199,339.133,236.582L339.133,236.582z"/>
					<g>
						<path style="fill:#56181D;" d="M335.805,244.92c1.372,0.205,6.798,0.88,8.588,1.304c1.814,0.43-0.539,7.384-5.341,6.902
							C334.564,252.676,333.998,244.65,335.805,244.92z"/>
						<path style="fill:#FFFFFF;" d="M335.202,245.234c0.154-0.232,0.357-0.35,0.603-0.313c1.372,0.205,6.798,0.88,8.588,1.304
							c0.345,0.082,0.54,0.4,0.595,0.858c-0.883,0.793-2.474,0.922-5.825,0.46C336.569,247.185,335.572,246.124,335.202,245.234z"/>
					</g>
					<path style="fill:#56181D;" d="M337.395,234.914c0,0-1.944-5.473-5.351-0.533C333.652,233.413,335.404,233.383,337.395,234.914
						z"/>
					<path style="fill:#56181D;" d="M349.249,242.789c0,0,1.429-6.475-5.258-3.951C346.284,238.949,348.135,240.047,349.249,242.789
						z"/>
				</g>
			</g>
		</g>
	</g>
	<g>
		<g>
			<path style="fill:#2B2C2C;" d="M167.927,84.146c-5.571,3.954-13.729,16.223-11.255,43.576
				c2.764,30.572-2.272,25.334-8.071,32.298c-5.798,6.963-8.875,14.27,1.017,22.042c9.891,7.773,9.775,10.705,9.449,15
				c-0.326,4.295,3.503,10.986,16.406,7.266c16.701-4.815,23.366,6.652,30.125,3.111c6.759-3.541,41.215-21.707,42.617-32.731
				c1.401-11.024-3.609-21.249-11.932-21.301c-8.323-0.052-7.799-9.767-6.065-15.112c1.735-5.345-10.733-12.295-14.389-16.021
				c-3.655-3.726-5.995-12.768-5.006-16.154c0.99-3.387-6.418-13.741-9.554-15.077C198.133,89.705,174.027,79.817,167.927,84.146z"
				/>
			<path style="fill:#191919;" d="M157.08,106.187c11.149,9.905,35.907,27.406,69.575,24.943c2.543,2.434,4.285,4.939,3.563,7.165
				c-1.735,5.345-2.258,15.06,6.065,15.112c8.323,0.052,13.333,10.277,11.932,21.301c-1.402,11.024-35.858,29.19-42.617,32.731
				c-6.759,3.541-13.425-7.926-30.125-3.111c-12.904,3.721-16.732-2.971-16.406-7.266c0.326-4.295,0.442-7.227-9.449-15
				c-9.892-7.772-6.815-15.079-1.017-22.042c5.799-6.964,10.835-1.726,8.071-32.298C155.893,119.123,156.167,112.014,157.08,106.187
				z"/>
		</g>
		<path style="fill:#A07334;" d="M190.347,207.962c0,0,52.579-7.967,60.8-17.336c0,0-0.319-7.898-9.167-9.965
			c-8.849-2.067-40.966,4.196-45.563,13.127C191.821,202.72,190.347,207.962,190.347,207.962L190.347,207.962z"/>
		<g>
			<g>
				<path style="fill:#EC9A6F;" d="M186.139,183.077c-0.743,1.271,2.561,7.246,3.001,8.376c2.352,6.041,10.161,14.514,5.541,19.357
					c-4.907,5.146-8.554,6.361-15.104,15.05c-6.724,8.919-20.845,31.395-24.206,32.142c-1.488,0.331,4.123-30.171,3.865-32.107
					c-0.135-1.014-11.961-3.087-12.288-2.694c-2.438,2.924-19.939,66.229-6.566,71.558c16.781,6.688,77.242-53.846,80.552-52.927
					c6.21,1.725,29.397,32.893,23.671,34.151c-2.609,0.573-46.114,8.473-46.649,9.624c-0.744,1.603,1.421,10.241,2.333,11.943
					c0.539,1.005,60.42,6.298,73.898-5.968c5.599-5.096,1.48-30.968-10.044-54.028c-7.991-15.989-18.599-29.788-22.525-47.456
					c-0.917-4.125-3.919-16.514-5.393-17.019c-6.016-2.061-10.814,1.871-13.644,2.6
					C211.302,178.584,186.139,183.077,186.139,183.077L186.139,183.077z"/>
				<g>
					<path style="fill:#04566F;" d="M195.686,209.315c10.511-2.825,34.313-8.28,50.717-4.881
						c4.989,11.394,12.032,21.697,17.74,33.118c11.525,23.06,15.644,48.932,10.044,54.028c-8.798,8.007-37.371,8.532-56.304,7.651
						c-6.283-4.225-7.951-11.523-5.281-17.093c13.07-2.633,30.387-5.801,32.003-6.156c5.725-1.258-17.462-32.426-23.672-34.151
						c-3.31-0.919-63.772,59.615-80.552,52.927c-8.168-3.255-4.817-28.139-0.416-47.685c5.907-6.082,12.452-7.232,16.777-3.605
						c-1.141,7.581-2.093,14.694-1.37,14.533c3.361-0.747,17.481-23.223,24.206-32.142c6.551-8.688,10.197-9.904,15.104-15.05
						C195.126,210.343,195.455,209.843,195.686,209.315L195.686,209.315z"/>
					<path style="fill:#0C4466;" d="M219.642,242.364c1.979-1.915,5.977-3.831,7.414-4.647c0.641-0.363,2.298-1.667,3.111-1.667
						c0.052,0,0.393,1.591,0.414,1.657c0.437,1.324,0.982,2.625,1.546,3.899c1.421,3.213,3.228,6.218,4.97,9.263
						c2.299,4.018,4.794,7.852,7.758,11.414c2.296,2.761,5.817,6.12,7.242,9.505c1.224,2.906-2.06,4.673-4.384,5.333
						c-3.246,0.922-8.301,1.423-12.511,0.65c5.014-0.946,8.699-1.634,9.403-1.789c5.726-1.258-17.462-32.426-23.671-34.151
						C220.724,241.773,220.285,241.961,219.642,242.364L219.642,242.364z"/>
					<path style="fill:#1F7B88;" d="M249.925,211.756c4.476,8.619,9.755,16.866,14.218,25.797
						c11.525,23.06,15.644,48.932,10.044,54.028c-2.025,1.844-5.099,3.29-8.862,4.415c0.291-0.405,0.575-0.817,0.847-1.237
						c4.409-6.805,6.377-14.398,5.01-22.414c-1.868-10.956-5.317-22.236-9.939-32.333c-2.892-6.318-6.935-12.06-9.253-18.647
						C250.926,218.338,250.262,215.042,249.925,211.756L249.925,211.756z"/>
				</g>
			</g>
			<g>
				<path style="fill:#EC9A6F;" d="M201.665,286.171c-3.488-3.914-5.884-4.626-8.762-1.567
					c-5.841,6.211-18.626,31.015-13.734,31.624c5.525,0.688,11.692-4.541,16.613-10.431
					C202.288,298.008,205.446,290.414,201.665,286.171L201.665,286.171z"/>
				<path style="fill:#EC9A6F;" d="M200.368,284.823c0.417,0.395,0.848,0.845,1.297,1.348c3.782,4.243,0.624,11.838-5.883,19.626
					c-3.098,3.708-6.689,7.154-10.307,9.021C183.815,307.07,195.599,290.92,200.368,284.823L200.368,284.823z"/>
				<path style="fill:#2B2C2C;" d="M185.475,314.818c-2.124,1.108-4.259,1.665-6.306,1.41c-4.892-0.609,7.893-25.413,13.734-31.624
					c2.507-2.666,4.649-2.468,7.465,0.219C195.6,290.919,183.803,307.073,185.475,314.818z"/>
			</g>
			<g>
				<path style="fill:#EC9A6F;" d="M160.071,226.585c3.975-3.418,4.73-5.801,1.722-8.732c-6.107-5.951-30.68-19.172-31.376-14.292
					c-0.786,5.512,4.333,11.77,10.135,16.794C148.224,226.999,155.761,230.291,160.071,226.585z"/>
				<path style="fill:#2B2C2C;" d="M131.887,210.241c-1.183-2.262-1.777-4.528-1.47-6.681c0.696-4.88,25.269,8.342,31.376,14.292
					c2.336,2.276,2.403,4.222,0.453,6.579C156.269,221.271,139.51,212.569,131.887,210.241z"/>
			</g>
		</g>
		<g>
			<path style="fill:#EC9A6F;" d="M238.264,110.471c0.22-5.697,2.257-10.174,1.669-13.952
				c-1.615-10.359-16.446-24.406-16.446-24.406l4.68-5.596c0,0,28.451,20.282,29.16,33.227c0.122,2.214-0.71,10.453-1.777,13.281
				C247.892,133.313,238.191,112.369,238.264,110.471z"/>
			<path style="fill:#D06644;" d="M238.808,105.801c4.122,1.103,12.034,3.002,17.702,3.023c-0.277,1.718-0.605,3.259-0.961,4.2
				c-7.658,20.289-17.358-0.655-17.285-2.553C238.328,108.816,238.546,107.263,238.808,105.801z"/>
			<path style="fill:#EC9A6F;" d="M228.521,66.963c0,0-2.145,6.926-2.533,7.006c-2.624,0.538-13.611-0.188-16.303,0.051
				c-0.833,0.075-3.163,0.165-3.699-0.668c-1.202-1.869,7.312-3.755,7.304-3.806c-0.05-0.33-8.343-6.967-7.79-8.981
				c0.635-2.314,7.47,2.887,7.645,2.607c0.194-0.309-5.182-6.722-3.138-8.712c1.399-1.361,6.952,5.238,7.174,5.139
				c0.084-0.038-1.759-7.782,0.261-8.23c2.126-0.471,3.375,5.701,4.672,6.971c0.118,0.115,0.907-6.369,2.564-5.879
				c0.993,0.294,1.551,5.246,1.786,6.057C227.411,61.779,227.699,63.67,228.521,66.963z"/>
		</g>
		<g>
			<path style="fill:#EC9A6F;" d="M152.449,120.564c0,0-12.775-14.673-13.914-17.263c-1.303-2.962-1.338-7.612,13.714-27.93
				l-4.309-6.041c0,0-26.75,20.749-26.1,32.054c0.714,12.416,15.75,30.933,25.164,36.745
				C156.418,143.94,152.449,120.564,152.449,120.564z"/>
			<path style="fill:#D06644;" d="M148.489,115.952c2.237,2.633,3.96,4.611,3.96,4.611s3.969,23.376-5.444,17.565
				c-2.715-1.676-5.898-4.409-9.069-7.748C142.91,128.456,147.038,119.468,148.489,115.952z"/>
			<path style="fill:#EC9A6F;" d="M146.949,69.923c0,0,2.433,6.831,2.824,6.894c2.645,0.428,13.592-0.758,16.291-0.631
				c0.836,0.039,3.167,0.032,3.668-0.823c1.123-1.917-7.463-3.446-7.457-3.497c0.037-0.332,8.044-7.31,7.407-9.299
				c-0.731-2.286-7.342,3.197-7.53,2.925c-0.206-0.3,4.897-6.933,2.771-8.835c-1.454-1.301-6.727,5.525-6.953,5.434
				c-0.085-0.034,1.432-7.849-0.605-8.212c-2.144-0.382-3.133,5.838-4.376,7.16c-0.113,0.12-1.173-6.325-2.808-5.766
				c-0.98,0.336-1.329,5.306-1.531,6.126C147.842,64.697,147.633,66.599,146.949,69.923z"/>
		</g>
		<g>
			<path style="fill:#FDD553;" d="M149.654,115.21c0,0,27.525,30.991,43.446,25.017c15.921-5.974,41.279-22.78,44.511-33.978
				l20.997,5.688c0,0-7.314,29.623-26.694,41.917c0,0,18.078,21.316,19.232,36.804c0,0-4.977-5.088-27.563,0.845
				c-16.807,4.415-33.239,16.458-33.239,16.458c-2.169-11.955-4.761-19.187-13.95-38.615l-37.405-31.397
				C138.988,137.951,148.979,123.256,149.654,115.21L149.654,115.21z"/>
			<g>
				<path style="fill:#BA7F11;" d="M231.74,152.581c-2.565-3.769-4.521-7.995-7.752-11.295c-1.459-1.49-6.076-5.13-6.019-5.216
					c0.135-0.202,4.81,2.369,5.876,3.188C229.242,143.402,231.74,152.581,231.74,152.581z"/>
				<path style="fill:#BA7F11;" d="M232.762,150.909c0.105,0.15-0.798-4.076-1.048-5.32c-0.633-3.153-1.414-6.254-2.396-9.318
					c-0.104-0.324-0.909-2.953-0.909-2.953s2.159,2.707,2.926,5.003C232.615,142.152,232.762,150.909,232.762,150.909z"/>
				<path style="fill:#BA7F11;" d="M178.948,168.241c0.004,0.04,0.362-0.386,0.367-0.393c0.287-0.376,0.557-0.764,0.823-1.155
					c0.71-1.046,1.268-2.287,1.726-3.462c0.537-1.376,1.416-2.527,1.945-6.609c0.506-3.903-0.242-8.775-0.242-8.775
					s-0.528,3.092-0.701,4.356c-0.479,3.502-1.127,7.057-2.053,10.472c-0.194,0.716-1.238,3.231-1.238,3.231
					s0.303-5.044-0.294-8.165c-0.935-4.89-2.605-10.897-3.249-10.934c-0.154-0.009,1.407,5.529,2.178,10.912
					C178.974,163.057,178.948,168.241,178.948,168.241L178.948,168.241z"/>
			</g>
		</g>
		<g>
			<path style="fill:#D06644;" d="M208.472,100.664c3.011-0.825,6.216,1.282,7.152,4.701c0.936,3.419-0.748,6.865-3.759,7.689
				c-3.011,0.825-6.215-1.282-7.152-4.701C203.776,104.934,205.461,101.489,208.472,100.664z"/>
			<g>
				<path style="fill:#EC9A6F;" d="M201.043,126.227c0,0,1.259,10.214,6.04,9.462c4.781-0.751,8.899,9.846,4.567,15.315
					c-4.332,5.47-25.996,2.02-28.054-6.894c-2.058-8.915,6.82-4.667,3.657-11.633C182.064,121.046,201.043,126.227,201.043,126.227z
					"/>
				<path style="fill:#D06644;" d="M187.538,133.156c-0.082-0.214-0.176-0.44-0.284-0.679c-5.189-11.431,13.79-6.249,13.79-6.249
					s0.511,4.144,2.118,6.959C198.706,135.065,191.3,133.93,187.538,133.156z"/>
			</g>
			<g>
				<path style="fill:#EC9A6F;" d="M177.903,86.463c10.741-4.779,23.952,3.148,29.548,15.724
					c5.596,12.576,1.987,26.136-6.552,29.216c-5.695,2.054-21.232,1.174-29.254-10.484
					C163.841,109.58,167.162,91.243,177.903,86.463z"/>
				<path style="fill:#D06644;" d="M174.265,124.108c-0.938-0.961-1.817-2.021-2.621-3.189c-7.803-11.339-4.482-29.676,6.259-34.456
					c10.205-4.541,22.639,2.388,28.653,13.876c-1.026-0.843-2.068-1.338-2.068-1.338c2.098,5.438-7.672-1.755-7.672-1.755
					c4.4,6.568-10.63,2.482-10.63,2.482c3.364,7.945-12.478,1.731-12.478,1.731C172.758,106.023,173.703,118.7,174.265,124.108
					L174.265,124.108z"/>
			</g>
			<path style="fill:#2B2C2C;" d="M195.13,166.506c9.178-9.118,14.186-19.038-3.363-27.641
				c-22.921-11.237-20.03-26.423-19.971-40.134c0,0,19.514,9.421,11.165-1.365c0,0,15.928,7.612,11.84-2.602
				c0,0,14.476,11.471,6.396-1.113c0,0,7.326,8.523,7.851,13.262c0,0,0.587-29.785-16.492-32.119
				c-23.265-3.18-28.864,17.589-28.864,17.589s-6.399,18.466-0.195,33.253c4.884,11.641,15.626,18.322,23.316,24.075
				C194.742,155.643,192.247,169.37,195.13,166.506z"/>
			<g>
				<path style="fill:#56181D;" d="M185.117,106.634c0,0-6.934-6.093-6.461,3.568C178.655,110.202,179.094,104.152,185.117,106.634z
					"/>
				<path style="fill:#56181D;" d="M204.456,102.96c0,0-5.876-8.563-7.303,1.14C197.153,104.1,199.803,98.49,204.456,102.96z"/>
				<path style="fill:#56181D;" d="M195.764,106.121c0,0-0.376,5.253,2.061,6.245c1.598,0.651,0.484,2.243-0.248,3.019
					c0,0,5.26-2.331,2.524-3.35C195.962,110.494,195.764,106.121,195.764,106.121z"/>
				<g>
					<path style="fill:#56181D;" d="M199.344,117.405c-1.427-0.013-7.043-0.201-8.929-0.059c-1.911,0.145-0.642,7.582,4.311,7.866
						C199.356,125.478,201.221,117.421,199.344,117.405z"/>
					<path style="fill:#FFFFFF;" d="M199.906,117.819c-0.119-0.261-0.306-0.413-0.562-0.415c-1.427-0.013-7.043-0.201-8.929-0.059
						c-0.363,0.028-0.612,0.319-0.742,0.775c0.769,0.948,2.363,1.334,5.839,1.405C198.204,119.58,199.387,118.664,199.906,117.819z"
						/>
				</g>
				<path style="fill:#56181D;" d="M198.828,107.891c0,0,1.48-5.617,5.287-0.979C202.432,106.082,200.684,106.198,198.828,107.891z"
					/>
				<path style="fill:#56181D;" d="M181.996,114.576c0,0-0.398-6.619,5.812-3.078C185.525,111.247,183.526,112.042,181.996,114.576z
					"/>
			</g>
		</g>
	</g>
	<g>
		<g>
			<g>
				<path style="fill:#804E48;" d="M100.941,379.16c5.36-0.488,8.118,2.473,8.889,8.642c1.03,8.235-0.587,27.057-5.239,27.716
					c-5.329,0.754-10.301-7.684-11.196-17.52C92.5,388.161,95.58,379.648,100.941,379.16z"/>
				<path style="fill:#FFE9DA;" d="M105.326,379.752c2.544,1.157,3.981,3.866,4.504,8.05c1.03,8.235-0.587,27.057-5.239,27.716
					c-0.218,0.031-0.435,0.046-0.651,0.047C109.784,400.373,107.273,386.513,105.326,379.752z"/>
				<g>
					<path style="fill:#FFE2D5;" d="M93.772,395.941c0,0,3.418-0.256,7.583-2.365c0.562-0.285,0.788-0.972,0.503-1.534
						c-0.285-0.563-0.972-0.788-1.534-0.503c-3.701,1.875-6.73,2.126-6.73,2.126c-0.629,0.049-1.098,0.599-1.049,1.228
						C92.594,395.521,93.144,395.99,93.772,395.941L93.772,395.941z"/>
					<path style="fill:#FFE2D5;" d="M93.943,399.629c0,0,3.418-0.256,7.583-2.366c0.562-0.284,0.787-0.972,0.503-1.534
						c-0.285-0.562-0.972-0.787-1.535-0.503c-3.701,1.875-6.73,2.126-6.73,2.126c-0.628,0.049-1.098,0.599-1.048,1.228
						C92.765,399.208,93.315,399.678,93.943,399.629L93.943,399.629z"/>
					<path style="fill:#FFE2D5;" d="M94.136,403.069c0,0,3.418-0.255,7.583-2.366c0.563-0.284,0.788-0.972,0.503-1.534
						c-0.285-0.562-0.972-0.787-1.534-0.503c-3.701,1.875-6.73,2.126-6.73,2.126c-0.629,0.049-1.098,0.599-1.049,1.228
						C92.957,402.648,93.507,403.118,94.136,403.069L94.136,403.069z"/>
				</g>
			</g>
			<g>
				<path style="fill:#804E48;" d="M-12.857,317.391c4.957-2.099,8.485-0.12,11.1,5.522c3.491,7.529,7.689,25.948,3.459,27.993
					c-4.845,2.343-12.153-4.178-16.003-13.274C-18.153,328.537-17.813,319.49-12.857,317.391L-12.857,317.391z"/>
				<g>
					<path style="fill:#FFE2D5;" d="M-12.968,339.841c0,0,3.091-0.816,6.581-3.676c0.471-0.386,0.571-1.134,0.224-1.671
						c-0.348-0.536-1.012-0.659-1.483-0.273c-3.101,2.54-5.837,3.29-5.837,3.29c-0.568,0.153-0.914,0.799-0.771,1.441
						C-14.112,339.596-13.536,339.994-12.968,339.841L-12.968,339.841z"/>
					<path style="fill:#FFE2D5;" d="M-11.609,342.544c0,0,3.091-0.817,6.581-3.676c0.471-0.386,0.571-1.135,0.224-1.671
						c-0.347-0.537-1.012-0.659-1.483-0.273c-3.101,2.54-5.837,3.29-5.837,3.29c-0.568,0.153-0.914,0.799-0.771,1.442
						C-12.753,342.298-12.177,342.697-11.609,342.544L-11.609,342.544z"/>
					<path style="fill:#FFE2D5;" d="M-9.842,345.337c0,0,3.091-0.817,6.581-3.676c0.471-0.386,0.571-1.135,0.224-1.671
						c-0.348-0.537-1.012-0.659-1.483-0.273c-3.101,2.54-5.837,3.29-5.837,3.29c-0.568,0.153-0.913,0.798-0.771,1.441
						C-10.987,345.092-10.41,345.49-9.842,345.337L-9.842,345.337z"/>
				</g>
				<path style="fill:#FFE9DA;" d="M-10.991,316.778c3.995-0.907,6.96,1.229,9.234,6.135c3.491,7.529,7.689,25.948,3.459,27.993
					c-0.312,0.151-0.634,0.265-0.965,0.344C1.035,327.892-7.39,319.354-10.991,316.778z"/>
			</g>
			<g>
				<path style="fill:#659DB4;" d="M23.49,276.072c0,0,2.465,5.861,5.813,11.74c5.372,9.431,67.938,76.3,72.501,88.798
					c-2.847,5.18-7.23,9.142-12.885,12.094c0,0-79.676-82.961-91.616-80.876c-11.931,2.084-27.188,14.94-27.188,14.94l11.365-3.36
					c2.567,6.021,4.671,14.34,1.305,18.839c0,0-48.068,14.217-56.998,9.803c-7.184-3.551-14.85-12.766,8.922-37.164
					c14.894-15.286,27.769-26.188,35.611-34.101c4.813-4.857,7.897-10.091,7.897-10.091L23.49,276.072L23.49,276.072z"/>
				<path style="fill:#4A7B9B;" d="M-18.519,319.408c0.658,1.545,1.286,3.24,1.799,4.984c-13.888,5.482-26.398,13.967-24.78,11.39
					c1.939-3.088,11.616-13.014,11.616-13.014L-18.519,319.408z"/>
				<path style="fill:#ABE1E8;" d="M88.263,387.864c-1.195,0.333,2.932,5.03,4.607,5.102c6.777,0.289,13.928-9.949,12.396-13.582
					c-1.363-3.23-4.665-6.529-4.725-5.499C100.311,377.753,95.351,385.888,88.263,387.864L88.263,387.864z"/>
				<path style="fill:#ABE1E8;" d="M-17.851,338.459c-0.44,1.161,5.858-0.552,6.907-1.859c4.247-5.29,0.081-16.735-3.754-17.652
					c-3.409-0.815-7.94,0.681-7.146,1.34C-18.863,322.763-15.245,331.578-17.851,338.459z"/>
				<path style="fill:#4A7B9B;" d="M-28.721,275.789c4.26-4.55,6.938-9.095,6.938-9.095l45.272,9.379c0,0,1.266,3.01,3.216,6.879
					C9.07,288.727-19.493,279.205-28.721,275.789z"/>
				<path style="fill:#325C80;" d="M-1.886,270.816l1.007,0.208c-0.88,4.072-2.475,12.418-2.872,21.039
					c-0.121,2.627-0.132,5.281,0.023,7.844c0.039-0.011,0.08-0.019,0.122-0.021c0.652-0.034,1.815-0.186,2.974-0.998
					c1.191-0.833,2.362-2.354,3.024-5.088c0.992-4.099,2.715-15.743,3.522-21.369l1.009,0.209c-0.815,5.669-2.539,17.3-3.531,21.402
					c-0.743,3.07-2.096,4.753-3.434,5.689c-1.369,0.958-2.741,1.142-3.512,1.182c-0.036,0.002-0.071,0-0.105-0.005
					c0.191,2.43,0.541,4.763,1.101,6.9c-0.048,0.006-0.094,0.012-0.14,0.02c-0.286,0.05-0.574,0.107-0.864,0.168
					c-1.226-4.75-1.473-10.421-1.217-15.981C-4.379,283.333-2.774,274.928-1.886,270.816z"/>
			</g>
		</g>
		<g>
			<path style="fill:#AE3350;" d="M60.585,250.612c0,0,7.959-7.826,9.082-19.512l-4.6-3.77l-6.162,15.55L60.585,250.612z"/>
			<g>
				<path style="fill:#FECBA5;" d="M69.103,227.819l17.358,8.197c0,0-0.201-8.035-1.759-16.473l8.586-2.591
					c0,0,13.478,31.884,7.243,37.244c-5.071,4.359-30.459-6.066-40.353-10.404C50.866,239.708,69.103,227.819,69.103,227.819z"/>
				<path style="fill:#E58C6C;" d="M72.694,229.515c-2.45,2.708-6.674,8.756-5.419,17.276c-2.763-1.125-5.212-2.173-7.098-3
					c-9.312-4.083,8.925-15.972,8.925-15.972L72.694,229.515z"/>
				<path style="fill:#FECBA5;" d="M93.285,221.04c0,0-7.074,1.595-7.336,1.298c-1.775-2.006-6.624-11.892-8.174-14.106
					c-0.479-0.685-1.72-2.66-1.265-3.54c1.02-1.974,6.901,4.466,6.941,4.434c0.261-0.208,1.879-10.706,3.901-11.231
					c2.323-0.604,1.222,7.914,1.552,7.927c0.365,0.014,3.243-7.844,5.987-7.064c1.877,0.533-1.075,8.638-0.878,8.781
					c0.075,0.054,5.869-5.405,7.264-3.878c1.469,1.608-3.259,5.768-3.713,7.526c-0.041,0.159,5.973-2.39,6.374-0.709
					c0.241,1.008-3.774,3.96-4.36,4.568C97.226,217.493,95.729,218.686,93.285,221.04L93.285,221.04z"/>
			</g>
		</g>
		<g>
			<g>
				<path style="fill:#FECBA5;" d="M-5.548,186.185c0,0-46.176-51.553-47.129-51.518c-0.953,0.035-7.691,10.179-7.691,10.179
					s38.383,42.937,45.216,56.932L-5.548,186.185z"/>
				<path style="fill:#E58C6C;" d="M-9.609,181.657c2.522,2.809,4.061,4.527,4.061,4.527l-9.604,15.593
					c-1.371-2.807-4.011-6.78-7.359-11.339C-19.196,185.722-13.337,182.995-9.609,181.657z"/>
			</g>
			<g>
				<path style="fill:#FECBA5;" d="M-52.132,136.331c0,0,1.427-1.138,1.236-5.318c-0.131-2.891-1.156-4.211-2.14-5.186
					c-2.164-2.144-4.175,0.545-4.544,0.384c-0.348-0.152-3.931-5.267-7.953-2c-1.551,1.26-0.599,2.607-0.599,2.607
					s-2.006-0.565-3.411,1.109c-1.368,1.631-0.07,3.774-0.07,3.774s-1.611,0.231-1.451,2.279c0.12,1.53,1.326,2.276,1.326,2.276
					s-1.422-0.155-1.296,1.962c0.126,2.132,0.693,2.554,3.211,3.751c2.313,1.1,5.461,2.672,8.05,3.21
					C-58.759,145.388-52.132,136.331-52.132,136.331z"/>
				<path style="fill:#A92707;" d="M-61.033,129.894c0.875-1.431,2.079-2.673,3.246-3.874c0.102,0.107,0.172,0.176,0.208,0.191
					c0.034,0.015,0.081,0.006,0.141-0.022c-0.357,0.392-0.788,0.86-0.974,1.082c-0.337,0.401-0.669,0.807-0.979,1.229
					c-0.262,0.357-0.527,0.712-0.768,1.083c-0.745,1.153-1.613,2.486-1.024,3.883c0.224,0.531,0.571,0.864,1.185,0.92
					c0.437,0.04,0.94-0.095,1.328-0.26c1.035-0.437,1.997-0.994,2.948-1.591c0.328-0.206,0.659-0.415,0.96-0.66
					c0.112-0.091-0.739,0.806-1.209,1.157c-0.557,0.415-1.355,1.014-2.201,1.436c-0.036,0.107-0.062,0.197-0.072,0.229
					c-0.273,0.858-0.284,1.812-0.086,2.688c0.063,0.277,0.249,0.993,0.171,0.843c-0.38-0.726-0.868-1.987-0.859-2.808
					c0.002-0.187,0.003-0.413,0.047-0.62c-0.791,0.254-1.573,0.263-2.195-0.257c-0.112,0.115-0.267,0.209-0.369,0.265
					c-0.104,0.056-0.216,0.101-0.334,0.136c0.016,0.099,0.008,0.232,0.029,0.362c0.024,0.151,0.035,0.303,0.036,0.456
					c0.007,0.87-0.681,1.566-1.469,1.896c0.184,0.338,0.3,0.769,0.395,1.131c0.112,0.428,0.195,0.886,0.151,1.33
					c-0.074,0.75-0.843,1.177-1.507,1.325c-1.373,0.305-2.742,0.045-4.018-0.49c-0.014-0.003-0.028-0.005-0.042-0.008l0.017-0.003
					c0.008,0.004,0.017,0.007,0.025,0.01c0.29,0.053,0.578,0.114,0.869,0.161c1.074,0.175,2.687,0.327,3.593-0.453
					c0.646-0.556,0.529-1.715,0.271-2.427c-0.055-0.15-0.157-0.285-0.236-0.423c-0.13,0.029-0.26,0.046-0.387,0.053
					c-2.114,0.106-4.374-0.45-6.253-1.444c0.261-0.158,0.523-0.168,0.619-0.165c0.315,0.147,0.662,0.263,0.905,0.342
					c1.619,0.521,3.651,1.222,5.308,0.547c0.428-0.174,0.947-0.472,1.16-0.905c0.146-0.298,0.146-0.649,0.139-0.973
					c-0.001-0.033-0.022-0.137-0.038-0.236c-0.515,0.059-1.08-0.005-1.526-0.08c-1.387-0.233-2.705-0.982-3.927-1.624
					c-0.797-0.419-1.601-0.864-2.26-1.493c0.228-0.106,0.403-0.131,0.403-0.131s-0.013-0.022-0.035-0.062
					c0.035,0.028,0.071,0.055,0.107,0.082c0.559,0.418,1.171,0.737,1.787,1.063c1.287,0.68,2.585,1.266,3.996,1.64
					c0.553,0.146,1.308,0.352,1.872,0.128c0.161-0.064,0.309-0.174,0.432-0.305c-0.024-0.03-0.048-0.06-0.072-0.092
					c-0.802-1.089-0.534-2.255,0.012-3.386c0.039-0.079,0.078-0.158,0.118-0.236c-0.283-0.309-0.601-0.566-0.855-0.78
					c-0.912-0.771-1.867-1.57-2.852-2.242c-0.362-0.247-0.715-0.507-1.072-0.76c-0.069-0.12-0.201-0.388-0.238-0.739
					c0.808,0.422,1.563,0.974,2.293,1.514c0.526,0.389,1.029,0.805,1.536,1.219c0.401,0.326,0.821,0.635,1.246,0.927
					C-61.245,129.732-61.135,129.812-61.033,129.894z"/>
			</g>
		</g>
		<g>
			<path style="fill:#FE7680;" d="M-7.103,182.014c0,0,18.277,22.751,35.14,27.711c16.864,4.961,37.121,14.489,43.002,18.741
				c-6.479,5.273-9.157,13.555-10.528,22.155l-21.046-9.076c0,0-9.378,11.602-11.322,23.986c-1.453,9.253-1.207,15.989-1.207,15.989
				c-27.55,0.839-47.424-5.755-53.724-9.422c0,0,1.236-27.238,18.173-54.989l-12.849-14.515
				C-19.583,192.902-15.342,185.509-7.103,182.014z"/>
			<path style="fill:#AE3350;" d="M39.505,240.904c0,0-0.283-9.093,1.654-18.642C41.159,222.262,35.681,233.357,39.505,240.904z"/>
			<path style="fill:#AE3350;" d="M23.581,264.477c0,0-24.496,9.287-44.572,3.956C-20.992,268.434-0.172,269.902,23.581,264.477z"/>
			<path style="fill:#AE3350;" d="M-8.261,216.791c0,0,6.979-8.917,13.476-10.953C5.215,205.838-5.209,207.281-8.261,216.791z"/>
			<path style="fill:#FFA09C;" d="M19.416,233.52c1.024-0.525,9.081,4.071,11.158,4.743c1.31,0.424-3.653,8.95-4.996,9.522
				c-1.343,0.571-4.495,1.424-6.745,0.585c-1.884-0.702-3.741-4.673-3.19-6.453C16.195,240.138,17.844,234.326,19.416,233.52z"/>
		</g>
		<g>
			<g>
				<g>
					<path style="fill:#FFE8E6;" d="M22.065,219.376c0,0-5.5,10.31-6.412,12.729c-0.377,0.999-4.384-0.191-4.155-1.759
						c0.35-2.388,3.396-8.561,6.254-12.567C18.768,216.354,22.065,219.376,22.065,219.376z"/>
					<path style="fill:#7B283F;" d="M17.573,222.12c0.703,0.078,1.209,0.728,1.129,1.45c-0.08,0.723-0.716,1.247-1.419,1.169
						c-0.703-0.078-1.209-0.728-1.129-1.451C16.234,222.566,16.87,222.042,17.573,222.12z"/>
					<path style="fill:#7B283F;" d="M15.257,226.707c0.703,0.078,1.209,0.728,1.129,1.451c-0.08,0.723-0.716,1.246-1.419,1.169
						c-0.703-0.078-1.209-0.728-1.129-1.451C13.918,227.153,14.554,226.629,15.257,226.707z"/>
				</g>
				<path style="fill:#FFE8E6;" d="M18.56,220.347c0,0,13.324-1.461,16.934,6.97c0,0,8.893-13.846-2-19.653
					c-13.71-7.309-24.166-0.812-30.118,6.767C3.376,214.431,14.769,211.748,18.56,220.347z"/>
				<g>
					<path style="fill:#FECBA5;" d="M39.809,202.583c0,0-4.784,5.449-4.19,10.262c0.698,5.657-13.191,7.769-17.245,7.765
						c0,0-4.346-8.103,0.231-14.165c0,0,2.942-0.833,5.475-6.513C26.613,194.252,39.809,202.583,39.809,202.583z"/>
					<path style="fill:#E58C6C;" d="M20.913,204.829c0.962-0.972,2.101-2.505,3.167-4.896c2.532-5.68,15.729,2.651,15.729,2.651
						s-1.419,1.617-2.616,3.867C29.878,207.517,24.003,205.97,20.913,204.829z"/>
				</g>
			</g>
			<g>
				<path style="fill:#E58C6C;" d="M19.843,172.213c3.003,0.853,4.655,4.314,3.687,7.724c-0.968,3.41-4.193,5.486-7.196,4.634
					c-3.003-0.853-4.655-4.314-3.686-7.724C13.616,173.437,16.84,171.361,19.843,172.213z"/>
				<g>
					<path style="fill:#FECBA5;" d="M49.276,156.205c10.852,4.521,13.856,20.318,8.221,33.845
						c-5.635,13.527-23.371,17.213-33.129,12.953c-7.668-3.348-11.631-13.527-5.996-27.054
						C24.006,162.422,38.423,151.684,49.276,156.205z"/>
					<path style="fill:#E58C6C;" d="M19.993,172.239c6.761-10.712,19.971-19.913,29.283-16.034
						c10.852,4.521,13.856,20.318,8.221,33.845c-0.707,1.696-1.604,3.238-2.652,4.629c-0.787,0.055-2.458-0.369-2.593-0.333
						c0,0-7.386-6.697-1.644-19.572c0,0-28.084-4.079-14.87-6.804c0,0-10.806,2.047-7.889-1.316
						C27.849,166.655,23.289,169.04,19.993,172.239z"/>
				</g>
				<g>
					<path style="fill:#A92707;" d="M53.94,197.371c0,0-10.916-9.38-0.014-25.347c0,0-10.02,0.091-15.332-1.788
						c-3.608-1.277-0.56-2.798,2.491-3.774c0,0-16.428,0.712-9.964-3.431c0,0-6.465,1.167-11.7,10.742
						c0,0-0.028-24.107,23.314-22.144c0,0-4.003-0.924-6.519-1.082c-2.516-0.158,3.15-3.541,11.145-1.031
						c7.996,2.511,14.449,4.985,13.607,14.52C60.967,164.037,81.249,173.737,53.94,197.371z"/>
					<path style="fill:#802419;" d="M51.131,176.929c5.961,1.696,11.73,2.773,16.165,3.438c-1.604,4.589-5.522,10.223-13.357,17.003
						C53.94,197.371,45.238,189.894,51.131,176.929z M23.403,160.06c1.039,1.716,2.335,3.296,3.832,4.751
						c-2.272,1.489-5.197,4.175-7.815,8.963C19.42,173.773,19.411,166.337,23.403,160.06z"/>
				</g>
				<path style="fill:#FECBA5;" d="M58.037,193.13c2.494,1.877,2.789,5.701,0.657,8.533c-2.132,2.832-5.887,3.608-8.382,1.73
					c-2.494-1.877-2.789-5.701-0.657-8.533C51.787,192.028,55.543,191.253,58.037,193.13z"/>
				<g>
					<path style="fill:#802419;" d="M41.031,186.139c0.573,0.17,0.826,1.025,0.564,1.908c-0.262,0.883-0.94,1.462-1.513,1.292
						c-0.573-0.17-0.826-1.025-0.564-1.908C39.779,186.548,40.457,185.969,41.031,186.139z"/>
					<path style="fill:#802419;" d="M27.097,179.912c0.573,0.17,0.826,1.025,0.564,1.908c-0.262,0.883-0.94,1.462-1.513,1.292
						c-0.573-0.17-0.826-1.025-0.564-1.908C25.846,180.321,26.524,179.742,27.097,179.912z"/>
					<path style="fill:#802419;" d="M40.147,182.354c0,0,7.563-5.293,6.029,4.257C46.176,186.611,46.406,180.55,40.147,182.354z"/>
					<path style="fill:#802419;" d="M24.667,175.49c0,0,7.962-6.652,6.689,3.09C31.356,178.58,30.343,172.45,24.667,175.49z"/>
					<path style="fill:#802419;" d="M32.128,182.924c0,0-2.078,4.854-3.074,5.184c-1.639,0.542-0.728,2.177-0.085,3.028
						c0,0-4.931-2.751-2.14-3.608C28.621,186.978,32.128,182.924,32.128,182.924z"/>
					<g>
						<path style="fill:#802419;" d="M27.057,192.941c1.549,0.161,7.659,0.671,9.691,1.021c2.059,0.355-0.033,6.665-5.433,6.317
							C26.268,199.954,25.019,192.73,27.057,192.941z"/>
						<path style="fill:#FFFFFF;" d="M26.407,193.234c0.155-0.212,0.372-0.321,0.65-0.293c1.549,0.161,7.659,0.671,9.691,1.021
							c0.392,0.068,0.634,0.351,0.73,0.763c-0.925,0.731-2.691,0.876-6.469,0.519C28.084,194.968,26.889,194.03,26.407,193.234z"/>
					</g>
				</g>
			</g>
		</g>
	</g>
</g>
</svg>
