<?xml version="1.0" encoding="utf-8"?>
<!-- Generator: Adobe Illustrator 27.5.0, SVG Export Plug-In . SVG Version: 6.00 Build 0)  -->
<svg version="1.1" xmlns="http://www.w3.org/2000/svg" xmlns:xlink="http://www.w3.org/1999/xlink" x="0px" y="0px"
	 viewBox="0 0 500 500" style="enable-background:new 0 0 500 500;" xml:space="preserve">
<g id="BACKGROUND">
	<rect style="fill:#FFFFFF;" width="500" height="500"/>
</g>
<g id="OBJECTS">
	<g>
		<g>
			<g>
				<path style="fill:#C8D6E5;" d="M83.312,467.435L83.312,467.435c-17.509,0-31.702-14.194-31.702-31.702v-23.906h63.404v23.906
					C115.014,453.241,100.82,467.435,83.312,467.435z"/>
				<path style="fill:#C8D6E5;" d="M83.312,467.935c-17.756,0-32.202-14.446-32.202-32.202v-24.406h64.404v24.406
					C115.514,453.488,101.068,467.935,83.312,467.935z M52.11,412.326v23.406c0,17.205,13.997,31.202,31.202,31.202
					c17.205,0,31.202-13.997,31.202-31.202v-23.406H52.11z"/>
			</g>
			<g>
				<g>
					<g>
						<path style="fill:#C8D6E5;" d="M45.852,361.504c-0.27,0.68-0.66,1.27-1.16,1.76c-0.46,0.45-0.99,0.8-1.59,1.05
							c-0.25,0.12-0.51,0.21-0.79,0.28c-2.33,0.66-5.45,0.15-8.88-1.35c-2.91-1.26-6.05-3.23-9.12-5.8
							c-1.22-1.02-2.44-2.14-3.62-3.35c-9.03-9.2-12.93-20.02-8.71-24.16c0.44-0.44,0.96-0.78,1.54-1.04
							c4.93-2.19,14.38,1.97,22.46,10.2c0.88,0.9,1.72,1.82,2.5,2.74c2.89,3.41,5.07,6.93,6.41,10.16
							C46.442,355.764,46.842,359.145,45.852,361.504z"/>
					</g>
					<g>
						<path style="fill:#C8D6E5;" d="M46.192,372.025c-1.3,3.04-6.37,3.91-12.24,2.43c-0.83-0.2-1.67-0.45-2.53-0.77
							c-0.56-0.19-1.12-0.41-1.69-0.65c-7.49-3.19-12.28-8.81-10.68-12.56c0.73-1.71,2.66-2.73,5.26-3.03
							c2.97-0.35,6.81,0.24,10.72,1.83c0.16,0.06,0.31,0.12,0.47,0.19c0.15,0.06,0.29,0.13,0.44,0.2c2.88,1.27,5.34,2.91,7.16,4.65
							c0.68,0.64,1.27,1.31,1.75,1.97c0.69,0.94,1.18,1.88,1.44,2.78C46.592,370.115,46.572,371.125,46.192,372.025z"/>
					</g>
					<g>
						<path style="fill:#C8D6E5;" d="M68.672,383.145c-0.13,1.13-0.55,2.19-1.2,3.16c-0.44,0.65-0.98,1.26-1.62,1.83
							c-1.36,1.2-3.13,2.18-5.21,2.92c-0.74,0.26-1.53,0.49-2.35,0.69c-3.22,0.77-6.95,0.99-10.88,0.52
							c-10.99-1.3-19.29-7.5-18.54-13.84c0.21-1.78,1.11-3.38,2.55-4.74c0.56-0.53,1.2-1.02,1.92-1.48
							c3.18-2.01,7.78-3.18,12.95-3.14c1.18,0.01,2.39,0.08,3.62,0.22c0.01,0,0.01,0,0.01,0c0.07,0,0.15,0.01,0.22,0.02
							c0.25,0.03,0.5,0.06,0.74,0.1c6.14,0.85,11.38,3.24,14.56,6.31C67.762,377.944,68.982,380.534,68.672,383.145z"/>
					</g>
					<g>
						<path style="fill:#C8D6E5;" d="M72.982,377.595c-0.06,0.23-0.12,0.45-0.19,0.66c-1.12,3.68-2.98,6.54-5.32,8.05
							c-0.98,0.64-2.05,1.03-3.18,1.14c-6.13,0.62-11.96-7.19-13.35-17.62c-0.02-0.14-0.04-0.28-0.06-0.42
							c-0.03-0.25-0.05-0.5-0.08-0.75c-0.09-0.99-0.15-1.97-0.16-2.94c-0.08-5.43,1.15-10.29,3.26-13.61
							c1.08-1.7,2.38-2.99,3.86-3.77c0.8-0.42,1.66-0.68,2.56-0.77c6.36-0.63,12.4,7.78,13.49,18.8
							C74.222,370.444,73.892,374.315,72.982,377.595z"/>
					</g>
					<g>
						<path style="fill:#C8D6E5;" d="M40.893,352.974c3.708,9.199,10.335,15.197,14.801,13.396c4.467-1.8,5.082-10.717,1.373-19.916
							c-3.708-9.199-10.335-15.197-14.801-13.396C37.8,334.858,37.185,343.775,40.893,352.974z"/>
					</g>
					<g>
						<path style="fill:#C8D6E5;" d="M72.882,377.574c-0.03,0.23-0.05,0.46-0.09,0.68c-0.43,2.94-1.57,5.66-3.45,7.93
							c-0.33,0.39-0.68,0.77-1.05,1.14c-2.36,2.32-5.33,3.72-8.56,4.24c-0.47,0.08-0.96,0.14-1.44,0.18
							c-6.16,0.49-13.02-2.06-18.27-7.42c-2.9-2.95-4.93-6.37-6.07-9.87c-0.24-0.75-0.45-1.5-0.61-2.25
							c-0.67-3.07-0.65-6.14,0.09-8.96c0.36-1.4,0.89-2.73,1.6-3.97c0.05-0.09,0.1-0.18,0.16-0.27c0.65-1.09,1.44-2.1,2.37-3.01
							c1.06-1.04,2.25-1.9,3.52-2.56c1.2-0.65,2.48-1.12,3.81-1.44c2.84-0.67,5.93-0.63,9.01,0.11c1.78,0.42,3.56,1.08,5.28,1.97
							c2.37,1.21,4.63,2.86,6.65,4.92C71.142,364.405,73.562,371.395,72.882,377.574z"/>
					</g>
					<g>
						<path style="fill:#C8D6E5;" d="M72.982,377.595c-0.06,0.23-0.12,0.45-0.19,0.66c-0.43,2.94-1.57,5.66-3.45,7.93
							c-1.16,0.65-2.33,1.3-3.49,1.95c-1.74,0.97-3.47,1.95-5.21,2.92c-0.3,0.17-0.61,0.34-0.91,0.51
							c-0.47,0.08-0.96,0.14-1.44,0.18c-3.22,0.77-6.95,0.99-10.88,0.52c-10.99-1.3-19.29-7.5-18.54-13.84
							c0.21-1.78,1.11-3.38,2.55-4.74c-0.56-0.19-1.12-0.41-1.69-0.65c-7.49-3.19-12.28-8.81-10.68-12.56
							c0.73-1.71,2.66-2.73,5.26-3.03c-1.22-1.02-2.44-2.14-3.62-3.35c-9.03-9.2-12.93-20.02-8.71-24.16
							c0.44-0.44,0.96-0.78,1.54-1.04c3.8,8.74,10.42,20.2,21.67,30.11c0.25,0.22,0.5,0.44,0.75,0.66c1.98,1.69,4.1,3.35,6.37,4.93
							c0.65,0.45,1.31,0.9,1.99,1.34c0.18,0.12,0.37,0.24,0.55,0.35c1.7,1.09,3.39,2.09,5.06,3c0.01,0,0.01,0,0.01,0
							c0.34,0.19,0.68,0.37,1.02,0.54c5.06,2.66,9.98,4.54,14.5,5.89c2.63,0.79,5.13,1.4,7.44,1.86
							C72.912,377.585,72.952,377.585,72.982,377.595z"/>
					</g>
				</g>
				<g>
					<path style="fill:#C8D6E5;" d="M72.938,412.369c-0.41-8.639-2.13-17.007-5.112-24.869
						c-10.771-28.404-34.838-42.979-48.225-49.14l0.418-0.908c13.526,6.224,37.845,20.956,48.742,49.692
						c3.02,7.962,4.761,16.433,5.176,25.178L72.938,412.369z"/>
				</g>
			</g>
			<g>
				<g>
					<g>
						<path style="fill:#C8D6E5;" d="M55.182,300.845c-0.37,0.66-0.86,1.21-1.45,1.65c-0.54,0.4-1.14,0.69-1.79,0.87
							c-2.48,0.7-5.75-0.1-9.26-2.11c-0.2-0.11-0.39-0.23-0.59-0.35c-2.84-1.71-5.81-4.19-8.62-7.28c-1.12-1.23-2.22-2.55-3.27-3.96
							c-8.05-10.78-10.56-22.52-5.62-26.21c0.14-0.1,0.28-0.2,0.42-0.29c5.11-3.08,15.28,2.64,23.11,13.13
							c0.79,1.05,1.52,2.11,2.19,3.17c2.53,3.94,4.3,7.89,5.22,11.42C56.592,294.995,56.532,298.534,55.182,300.845z"/>
					</g>
					<g>
						<path style="fill:#C8D6E5;" d="M54.252,311.384c-0.05,0.13-0.12,0.26-0.19,0.38c-1.76,2.96-7.13,3.15-12.99,0.81
							c-0.83-0.33-1.68-0.71-2.52-1.15c-0.55-0.28-1.1-0.58-1.65-0.91c-7.3-4.35-11.46-10.83-9.29-14.48
							c0.99-1.67,3.13-2.45,5.86-2.41c1.07,0.02,2.25,0.17,3.48,0.45c2.32,0.52,4.86,1.51,7.36,2.95c0.15,0.08,0.31,0.17,0.46,0.26
							c2.99,1.78,5.45,3.92,7.17,6.08c1.47,1.84,2.4,3.7,2.63,5.35C54.712,309.694,54.622,310.595,54.252,311.384z"/>
					</g>
					<g>
						<path style="fill:#C8D6E5;" d="M75.762,326.414c-0.3,1.14-0.87,2.17-1.67,3.08c-2.1,2.38-5.79,3.91-10.26,4.35
							c-3.44,0.35-7.34,0.05-11.34-0.98c-11.18-2.88-18.9-10.45-17.23-16.9c0.47-1.81,1.62-3.34,3.29-4.54
							c0.65-0.48,1.39-0.9,2.2-1.27c2.58-1.18,5.86-1.8,9.5-1.77c1.39,0.01,2.84,0.12,4.32,0.33c1.3,0.18,2.62,0.45,3.95,0.79
							c0.26,0.07,0.52,0.14,0.77,0.21c7.91,2.23,13.95,6.79,15.97,11.55C75.992,322.995,76.192,324.745,75.762,326.414z"/>
					</g>
					<g>
						<path style="fill:#C8D6E5;" d="M59.305,308.924c-0.408,11.542,4.659,21.09,11.317,21.325
							c6.659,0.236,12.388-8.93,12.796-20.472c0.408-11.542-4.659-21.09-11.317-21.325
							C65.442,288.216,59.714,297.382,59.305,308.924z"/>
					</g>
					<g>
						<path style="fill:#C8D6E5;" d="M51.252,291.327c2.547,10.031,8.561,17.16,13.431,15.923
							c4.871-1.237,6.754-10.371,4.207-20.403c-2.547-10.031-8.561-17.161-13.432-15.924S48.704,281.295,51.252,291.327z"/>
					</g>
					<g>
						<path style="fill:#C8D6E5;" d="M80.682,321.984c-0.05,0.2-0.11,0.4-0.18,0.59c-1.05,3.22-2.97,6.04-5.72,8.1
							c-3.17,2.37-7,3.39-10.95,3.17c-6.43-0.34-13.18-3.94-17.87-10.22c-2.58-3.45-4.2-7.27-4.89-11.05
							c-0.15-0.81-0.26-1.62-0.32-2.42c-0.26-3.27,0.19-6.45,1.34-9.25c0.03-0.07,0.06-0.14,0.09-0.2c0.55-1.32,1.26-2.56,2.13-3.68
							c0.87-1.14,1.89-2.16,3.07-3.04c1.24-0.93,2.59-1.64,4-2.16c1.33-0.49,2.72-0.8,4.14-0.94c3.04-0.31,6.23,0.17,9.31,1.36
							c1.78,0.69,3.53,1.62,5.18,2.78c2.28,1.59,4.39,3.61,6.19,6.02C81.112,307.634,82.572,315.544,80.682,321.984z"/>
					</g>
					<g>
						<path style="fill:#C8D6E5;" d="M80.502,322.574c-1.05,3.22-2.97,6.04-5.72,8.1c-3.17,2.37-7,3.39-10.95,3.17
							c-3.44,0.35-7.34,0.05-11.34-0.98c-11.18-2.88-18.9-10.45-17.23-16.9c0.47-1.81,1.62-3.34,3.29-4.54
							c-0.55-0.28-1.1-0.58-1.65-0.91c-7.3-4.35-11.46-10.83-9.29-14.48c0.99-1.67,3.13-2.45,5.86-2.41
							c-1.12-1.23-2.22-2.55-3.27-3.96c-8.05-10.78-10.56-22.52-5.62-26.21c0.14-0.1,0.28-0.2,0.42-0.29
							c0.92,6.7,3.58,18.83,11.95,30.91c1.54,2.22,3.27,4.44,5.23,6.63c0.16,0.18,0.32,0.37,0.5,0.55c0.2,0.23,0.41,0.45,0.62,0.68
							c2.25,2.41,4.58,4.55,6.95,6.45c1.32,1.08,2.66,2.07,4,3c1.77,1.23,3.55,2.34,5.32,3.33c5.54,3.14,10.95,5.2,15.69,6.55
							c1.83,0.53,3.55,0.95,5.15,1.29C80.442,322.565,80.472,322.565,80.502,322.574z"/>
					</g>
				</g>
				<g>
					<path style="fill:#C8D6E5;" d="M79.643,411.934l-0.977-0.215c3.718-16.858,7.587-50.443-8.284-85.96
						c-8.099-18.126-19.979-34.02-35.308-47.24l0.653-0.758c15.441,13.317,27.408,29.329,35.567,47.59
						C87.283,361.13,83.388,394.955,79.643,411.934z"/>
				</g>
			</g>
			<g>
				<g>
					<g>
						<path style="fill:#C8D6E5;" d="M137.892,354.095c-1.18,1.21-2.4,2.33-3.62,3.35c-3.06,2.56-6.2,4.53-9.11,5.8h-0.01
							c-3.83,1.67-7.28,2.11-9.67,1.07c-0.6-0.25-1.13-0.6-1.59-1.05c-0.5-0.49-0.89-1.08-1.16-1.76c-0.99-2.36-0.59-5.74,0.96-9.51
							c0.67-1.62,1.55-3.31,2.63-5.02c1.07-1.71,2.34-3.44,3.78-5.14c0.78-0.92,1.62-1.84,2.5-2.74c9.03-9.2,19.78-13.31,24-9.16
							c0.53,0.52,0.93,1.14,1.2,1.86C149.762,336.764,145.792,346.044,137.892,354.095z"/>
					</g>
					<g>
						<path style="fill:#C8D6E5;" d="M123.08,359.467c-7.494,3.188-12.277,8.81-10.683,12.557s8.961,4.2,16.455,1.012
							c7.494-3.188,12.277-8.81,10.683-12.557C137.942,356.732,130.574,356.279,123.08,359.467z"/>
					</g>
					<g>
						<path style="fill:#C8D6E5;" d="M108.448,369.303c-10.991,1.305-19.29,7.503-18.537,13.844
							c0.753,6.341,10.273,10.423,21.264,9.118c10.991-1.305,19.29-7.503,18.538-13.844
							C128.959,372.081,119.439,367.998,108.448,369.303z"/>
					</g>
					<g>
						<path style="fill:#C8D6E5;" d="M107.942,365.715c-0.01,0.96-0.06,1.94-0.16,2.94c-0.02,0.25-0.05,0.5-0.08,0.75
							c-1.17,9.66-6.14,17.16-11.7,17.99c-0.56,0.09-1.14,0.11-1.71,0.05c-1.14-0.11-2.21-0.51-3.19-1.15
							c-2.34-1.51-4.19-4.38-5.31-8.05c-1.05-3.42-1.45-7.52-1.02-11.88c1.1-11.02,7.13-19.43,13.49-18.8
							c0.9,0.09,1.76,0.35,2.56,0.77c1.48,0.78,2.78,2.07,3.86,3.77c0.76,1.19,1.41,2.58,1.91,4.13
							C107.512,358.984,108.002,362.234,107.942,365.715z"/>
					</g>
					<g>
						<path style="fill:#C8D6E5;" d="M120.102,341.835c0,0.84-0.06,1.73-0.18,2.64c-0.3,2.66-1.05,5.56-2.23,8.5
							c-0.06,0.15-0.12,0.3-0.19,0.45c-1.32,3.15-2.97,5.91-4.77,8.08c-1.54,1.88-3.18,3.33-4.79,4.21
							c-1.8,0.99-3.55,1.27-5.05,0.66c-0.69-0.28-1.29-0.73-1.79-1.32c-1.84-2.15-2.43-6.21-1.7-10.98
							c0.26-1.83,0.74-3.77,1.42-5.74c0.2-0.62,0.44-1.25,0.69-1.88c3.71-9.2,10.34-15.2,14.81-13.4
							C118.872,334.085,120.162,337.435,120.102,341.835z"/>
					</g>
					<g>
						<path style="fill:#C8D6E5;" d="M125.242,372.215c-0.16,0.75-0.36,1.5-0.61,2.24c-1.14,3.5-3.17,6.92-6.07,9.87
							c-5.25,5.36-12.11,7.91-18.27,7.42c-1.5-0.12-2.95-0.42-4.33-0.91c-2.11-0.74-4.03-1.91-5.67-3.51c-2.51-2.46-4-5.63-4.5-9.08
							c-0.94-6.34,1.46-13.64,6.96-19.25c2.02-2.06,4.28-3.71,6.65-4.92c1.72-0.89,3.5-1.55,5.28-1.97c2.08-0.5,4.17-0.68,6.19-0.54
							c0.96,0.07,1.9,0.21,2.82,0.43c1.33,0.32,2.61,0.79,3.81,1.43c1.28,0.67,2.47,1.53,3.53,2.57c1,0.99,1.85,2.09,2.53,3.28
							c0.71,1.24,1.24,2.57,1.59,3.97h0.01C125.892,366.065,125.912,369.145,125.242,372.215z"/>
					</g>
					<g>
						<path style="fill:#C8D6E5;" d="M147.802,331.794c-7.95,2.94-18.47,6.61-27.88,12.68c-1.22,0.79-2.43,1.62-3.6,2.5
							c-1.9,1.41-3.73,2.93-5.45,4.59c-1.52,1.45-2.95,3-4.28,4.67c-0.44,0.55-0.87,1.12-1.29,1.7c-1.67,2.3-3.05,4.69-4.2,7.12
							c-1.11,2.34-2,4.72-2.7,7.1c-1.56,5.23-2.22,10.46-2.4,15.24c-0.03,0.96-0.05,1.91-0.05,2.83v0.01c0,0.2,0,0.4,0.01,0.6
							c-2.11-0.74-4.03-1.91-5.67-3.51c-2.51-2.46-4-5.63-4.5-9.08c-1.05-3.42-1.45-7.52-1.02-11.88
							c1.1-11.02,7.13-19.43,13.49-18.8c0.9,0.09,1.76,0.35,2.56,0.77c0.2-0.62,0.44-1.25,0.69-1.88c3.71-9.2,10.34-15.2,14.81-13.4
							c2.55,1.03,3.84,4.38,3.78,8.78c0.78-0.92,1.62-1.84,2.5-2.74c9.03-9.2,19.78-13.31,24-9.16
							C147.132,330.454,147.532,331.074,147.802,331.794z"/>
					</g>
				</g>
				<g>
					<path style="fill:#C8D6E5;" d="M85.647,412.369l-0.999-0.047c0.416-8.745,2.157-17.216,5.176-25.178
						c10.896-28.735,35.215-43.468,48.741-49.692l0.418,0.908c-13.387,6.16-37.454,20.736-48.225,49.14
						C87.778,395.362,86.058,403.73,85.647,412.369z"/>
				</g>
			</g>
		</g>
		<g>
			<rect x="348" y="347" style="fill:#F6B93B;" width="116" height="119"/>
		</g>
		<rect x="42" y="466" style="fill:#C8D6E5;" width="447" height="5"/>
	</g>
	<g>
		<g>
			<path style="fill:#222F3E;" d="M346.57,465.846H173.276c-14.278,0-25.853-11.575-25.853-25.853V105.7
				c0-14.279,11.575-25.853,25.853-25.853H346.57c14.279,0,25.854,11.575,25.854,25.853v334.293
				C372.423,454.271,360.848,465.846,346.57,465.846z"/>
		</g>
		<g>
			<path style="fill:#FFFFFF;" d="M334.331,449.486H186.456c-14.278,0-25.853-11.575-25.853-25.854V121.641
				c0-14.279,11.575-25.854,25.853-25.854h147.875c14.279,0,25.854,11.575,25.854,25.854v301.992
				C360.185,437.911,348.61,449.486,334.331,449.486z"/>
		</g>
		<g>
			<path style="fill:#222F3E;" d="M303.877,112.846h-87.907c-9.691,0-17.546-7.856-17.546-17.546V79.846h123V95.3
				C321.423,104.99,313.567,112.846,303.877,112.846z"/>
		</g>
		<g>
			<path style="fill:#C8D6E5;" d="M275.423,157.591v64.919c0,4.371-3.541,7.912-7.912,7.912h-92.055
				c-4.339-0.041-7.84-3.564-7.84-7.912v-64.919c0-4.371,3.541-7.912,7.912-7.912h91.983
				C271.882,149.679,275.423,153.22,275.423,157.591z"/>
			<polygon style="fill:#8395A7;" points="237,230.421 175.456,230.421 206.228,177.118 230.361,218.919 			"/>
			<polygon style="fill:#B1BEC9;" points="267.223,230.421 223.721,230.421 230.361,218.919 245.472,192.743 			"/>
			<circle style="fill:#B1BEC9;" cx="230.767" cy="173.586" r="13.081"/>
		</g>
		<g>
			<path style="fill:#C8D6E5;" d="M345.247,255.615v32.295c0,2.174-1.762,3.936-3.936,3.936h-45.795
				c-2.159-0.02-3.9-1.773-3.9-3.936v-32.295c0-2.174,1.762-3.936,3.936-3.936h45.759
				C343.486,251.679,345.247,253.44,345.247,255.615z"/>
			<polygon style="fill:#8395A7;" points="326.133,291.846 295.516,291.846 310.825,265.329 322.83,286.124 			"/>
			<polygon style="fill:#B1BEC9;" points="341.168,291.846 319.527,291.846 322.83,286.124 330.347,273.102 			"/>
			<path style="fill:#B1BEC9;" d="M329.539,263.572c0,3.594-2.914,6.508-6.508,6.508s-6.508-2.914-6.508-6.508
				s2.914-6.508,6.508-6.508S329.539,259.978,329.539,263.572z"/>
		</g>
		<g>
			<path style="fill:#C8D6E5;" d="M346.247,313.615v32.295c0,2.174-1.762,3.936-3.936,3.936h-45.795
				c-2.159-0.02-3.9-1.773-3.9-3.936v-32.295c0-2.174,1.762-3.936,3.936-3.936h45.759
				C344.486,309.679,346.247,311.44,346.247,313.615z"/>
			<polygon style="fill:#8395A7;" points="327.133,349.846 296.516,349.846 311.825,323.329 323.83,344.124 			"/>
			<polygon style="fill:#B1BEC9;" points="342.168,349.846 320.527,349.846 323.83,344.124 331.347,331.102 			"/>
			<path style="fill:#B1BEC9;" d="M330.539,321.572c0,3.594-2.914,6.508-6.508,6.508s-6.508-2.914-6.508-6.508
				s2.914-6.508,6.508-6.508S330.539,317.978,330.539,321.572z"/>
		</g>
		<path style="fill:#C8D6E5;" d="M274.044,259.846H171.802c-1.866,0-3.379-1.513-3.379-3.379v-0.242
			c0-1.866,1.513-3.379,3.379-3.379h102.242c1.866,0,3.379,1.513,3.379,3.379v0.242C277.423,258.333,275.91,259.846,274.044,259.846
			z"/>
		<path style="fill:#C8D6E5;" d="M274.044,271.846H171.802c-1.866,0-3.379-1.513-3.379-3.379v-0.242
			c0-1.866,1.513-3.379,3.379-3.379h102.242c1.866,0,3.379,1.513,3.379,3.379v0.242C277.423,270.333,275.91,271.846,274.044,271.846
			z"/>
		<path style="fill:#C8D6E5;" d="M245.044,283.846h-72.243c-1.866,0-3.379-1.513-3.379-3.379v-0.242
			c0-1.866,1.513-3.379,3.379-3.379h72.243c1.866,0,3.379,1.513,3.379,3.379v0.242C248.423,282.333,246.91,283.846,245.044,283.846z
			"/>
		<path style="fill:#C8D6E5;" d="M274.044,318.846H171.802c-1.866,0-3.379-1.513-3.379-3.379v-0.242
			c0-1.866,1.513-3.379,3.379-3.379h102.242c1.866,0,3.379,1.513,3.379,3.379v0.242C277.423,317.333,275.91,318.846,274.044,318.846
			z"/>
		<path style="fill:#C8D6E5;" d="M245.044,330.846h-72.243c-1.866,0-3.379-1.513-3.379-3.379v-0.242
			c0-1.866,1.513-3.379,3.379-3.379h72.243c1.866,0,3.379,1.513,3.379,3.379v0.242C248.423,329.333,246.91,330.846,245.044,330.846z
			"/>
		<path style="fill:#C8D6E5;" d="M245.044,343.846h-72.243c-1.866,0-3.379-1.513-3.379-3.379v-0.242
			c0-1.866,1.513-3.379,3.379-3.379h72.243c1.866,0,3.379,1.513,3.379,3.379v0.242C248.423,342.333,246.91,343.846,245.044,343.846z
			"/>
		<path style="fill:#C8D6E5;" d="M237.802,371.846h102.242c1.866,0,3.379-1.513,3.379-3.379v-0.242c0-1.866-1.513-3.379-3.379-3.379
			H237.802c-1.866,0-3.379,1.513-3.379,3.379v0.242C234.423,370.333,235.936,371.846,237.802,371.846z"/>
		<path style="fill:#C8D6E5;" d="M266.802,383.846h72.242c1.866,0,3.379-1.513,3.379-3.379v-0.242c0-1.866-1.513-3.379-3.379-3.379
			h-72.242c-1.866,0-3.379,1.513-3.379,3.379v0.242C263.423,382.333,264.936,383.846,266.802,383.846z"/>
		<path style="fill:#C8D6E5;" d="M266.802,396.846h72.242c1.866,0,3.379-1.513,3.379-3.379v-0.242c0-1.866-1.513-3.379-3.379-3.379
			h-72.242c-1.866,0-3.379,1.513-3.379,3.379v0.242C263.423,395.333,264.936,396.846,266.802,396.846z"/>
	</g>
	<g>
		<g>
			
				<rect x="366.873" y="416.476" transform="matrix(0.9999 -0.0129 0.0129 0.9999 -5.5491 4.9017)" style="fill:#FAB1A0;" width="21.036" height="32.716"/>
			<polygon style="fill:#FC928D;" points="387.878,438.342 366.78,429.14 366.726,421.514 387.922,421.326 			"/>
			<g>
				<path style="fill:#60A3BC;" d="M387.849,447.178v16.425h-50.586c0.149-2.325,0.757-5.695,3.165-8.346
					c1.301-1.433,2.792-2.188,4.791-2.768c2.51-0.729,5.823-1.181,10.571-2.353c4.52-1.115,8.076-2.303,10.193-3.055
					c0.016-0.006,0.033-0.012,0.048-0.018L387.849,447.178z"/>
				<rect x="383.434" y="447.101" style="fill:#3C6382;" width="4.433" height="16.501"/>
				<path style="fill:#60A3BC;" d="M378.232,447.107H366.25v-10.139h1.843C373.693,436.968,378.232,441.507,378.232,447.107
					L378.232,447.107z"/>
				<path style="fill:#3C6382;" d="M337.312,466.399h50.486c0.664,0,1.202-0.619,1.202-1.383l0,0c0-0.764-0.538-1.383-1.202-1.383
					h-50.486c-0.664,0-1.202,0.619-1.202,1.383l0,0C336.11,465.78,336.648,466.399,337.312,466.399z"/>
				<g>
					<path style="fill:#3C6382;" d="M366.298,448.655c0,1.869-1.286,3.556-3.184,3.991l-12.979,2.966
						c-2.206,0.504-4.403-0.875-4.907-3.08c-0.003-0.015-0.007-0.029-0.009-0.043c2.51-0.729,5.823-1.181,10.571-2.353
						c4.52-1.115,8.076-2.303,10.193-3.055c0.088,0.21,0.159,0.43,0.211,0.659C366.264,448.048,366.298,448.354,366.298,448.655z"/>
					<g>
						
							<line style="fill:none;stroke:#222F3E;stroke-width:0.5;stroke-miterlimit:10;" x1="348.672" y1="451.68" x2="351.122" y2="455.387"/>
						
							<line style="fill:none;stroke:#222F3E;stroke-width:0.5;stroke-miterlimit:10;" x1="352.272" y1="450.941" x2="354.656" y2="454.579"/>
						
							<line style="fill:none;stroke:#222F3E;stroke-width:0.5;stroke-miterlimit:10;" x1="355.72" y1="450.153" x2="358.104" y2="453.791"/>
						
							<line style="fill:none;stroke:#222F3E;stroke-width:0.5;stroke-miterlimit:10;" x1="358.872" y1="449.365" x2="361.257" y2="453.003"/>
						
							<line style="fill:none;stroke:#222F3E;stroke-width:0.5;stroke-miterlimit:10;" x1="362.025" y1="448.38" x2="364.409" y2="452.018"/>
					</g>
				</g>
				<path style="fill:#3C6382;" d="M387.916,448.135h-2.266v-4.137c0-1.251,1.014-2.266,2.266-2.266l0,0V448.135z"/>
			</g>
		</g>
		<g>
			
				<rect x="310.973" y="417.476" transform="matrix(0.9999 -0.0129 0.0129 0.9999 -5.5667 4.181)" style="fill:#FAB1A0;" width="21.036" height="32.716"/>
			<polygon style="fill:#FC928D;" points="331.978,439.342 310.88,430.14 310.826,422.514 332.022,422.326 			"/>
			<g>
				<path style="fill:#60A3BC;" d="M332.064,447.228v16.425h-50.586c0.149-2.325,0.757-5.695,3.165-8.346
					c1.301-1.433,2.792-2.188,4.791-2.768c2.51-0.729,5.823-1.181,10.571-2.352c4.52-1.115,8.076-2.303,10.193-3.055
					c0.016-0.006,0.033-0.012,0.048-0.018L332.064,447.228z"/>
				<rect x="327.648" y="447.151" style="fill:#3C6382;" width="4.433" height="16.501"/>
				<path style="fill:#60A3BC;" d="M322.446,447.157h-11.982v-10.139h1.844C317.907,437.018,322.446,441.557,322.446,447.157
					L322.446,447.157z"/>
				<path style="fill:#3C6382;" d="M281.526,466.45h50.486c0.664,0,1.202-0.619,1.202-1.383l0,0c0-0.764-0.538-1.383-1.202-1.383
					h-50.486c-0.664,0-1.202,0.619-1.202,1.383l0,0C280.324,465.831,280.862,466.45,281.526,466.45z"/>
				<g>
					<path style="fill:#3C6382;" d="M310.512,448.706c0,1.869-1.286,3.556-3.184,3.991l-12.979,2.966
						c-2.206,0.504-4.403-0.875-4.907-3.08c-0.003-0.015-0.007-0.029-0.009-0.043c2.51-0.729,5.823-1.181,10.571-2.352
						c4.52-1.115,8.076-2.303,10.193-3.055c0.088,0.21,0.159,0.43,0.211,0.659C310.479,448.098,310.512,448.404,310.512,448.706z"/>
					<g>
						
							<line style="fill:none;stroke:#222F3E;stroke-width:0.5;stroke-miterlimit:10;" x1="292.887" y1="451.73" x2="295.336" y2="455.437"/>
						
							<line style="fill:none;stroke:#222F3E;stroke-width:0.5;stroke-miterlimit:10;" x1="296.486" y1="450.992" x2="298.871" y2="454.629"/>
						
							<line style="fill:none;stroke:#222F3E;stroke-width:0.5;stroke-miterlimit:10;" x1="299.934" y1="450.204" x2="302.319" y2="453.841"/>
						
							<line style="fill:none;stroke:#222F3E;stroke-width:0.5;stroke-miterlimit:10;" x1="303.087" y1="449.415" x2="305.471" y2="453.053"/>
						
							<line style="fill:none;stroke:#222F3E;stroke-width:0.5;stroke-miterlimit:10;" x1="306.239" y1="448.43" x2="308.623" y2="452.068"/>
					</g>
				</g>
				<path style="fill:#3C6382;" d="M332.131,448.185h-2.266v-4.137c0-1.251,1.014-2.266,2.266-2.266l0,0V448.185z"/>
			</g>
		</g>
		<g>
			<g>
				<path style="fill:#222F3E;" d="M418.7,256h-32.4v-27.358c0-10.878,7.253-19.697,16.2-19.697l0,0c8.947,0,16.2,8.819,16.2,19.697
					V256z"/>
			</g>
			<g>
				<path style="fill:#F2C6C2;" d="M408.234,226.839c-1.16,2.535-0.302,5.414,1.916,6.429c2.218,1.015,4.957-0.217,6.118-2.753
					c1.16-2.535,0.303-5.414-1.916-6.429C412.133,223.071,409.394,224.303,408.234,226.839z"/>
				<path style="fill:none;stroke:#222F3E;stroke-width:0.35;stroke-miterlimit:10;" d="M411.036,227.708
					c0.033-0.159,0.274-1.259,1.22-1.715c1.021-0.492,2.472-0.043,3.272,1.214"/>
			</g>
			
				<rect x="390.151" y="238.415" transform="matrix(-1 -1.224647e-16 1.224647e-16 -1 795.5931 494.1597)" style="fill:#F2C6C2;" width="15.291" height="17.33"/>
			<path style="fill:#FC928D;" d="M405.442,238.415v9.948c-1.492,0.058-4.891,0.034-8.532-1.467c-4.1-1.69-6.072-4.248-6.759-5.252
				c0-1.076,0-2.153,0-3.229H405.442z"/>
			<path style="fill:#F2C6C2;" d="M410.33,228.835c-0.063,1.539-0.261,3.015-0.603,4.41c-0.837,3.366-2.448,6.246-4.545,8.262
				c-2.097,2.034-4.68,3.195-7.443,3.105c-2.52-0.081-4.815-1.197-6.687-3.024c-2.088-2.043-3.645-4.977-4.374-8.361
				c-0.36-1.647-0.513-3.393-0.459-5.193c0.198-5.769,2.61-10.755,6.084-13.518c1.917-1.503,4.149-2.349,6.516-2.268
				c5.049,0.162,9.225,4.473,10.827,10.449C410.159,224.605,410.402,226.675,410.33,228.835z"/>
			<g>
				<circle style="fill:#222F3E;" cx="406.1" cy="203.545" r="6.3"/>
			</g>
			<g>
				<g>
					<path style="fill:#222F3E;" d="M391.868,227.945c-0.028,0.383-0.361,0.67-0.744,0.642c-0.383-0.029-0.67-0.362-0.642-0.744
						c0.028-0.383,0.361-0.67,0.744-0.641C391.61,227.23,391.897,227.563,391.868,227.945z"/>
				</g>
				<g>
					<path style="fill:#222F3E;" d="M402.522,228.735c-0.029,0.383-0.362,0.67-0.744,0.642c-0.383-0.029-0.67-0.362-0.642-0.744
						c0.029-0.383,0.361-0.67,0.744-0.641C402.263,228.019,402.55,228.352,402.522,228.735z"/>
				</g>
				<path style="fill:#EE5253;" d="M401.715,232.221c-0.011,1.061,0.84,1.929,1.901,1.94c1.061,0.011,1.929-0.84,1.94-1.901
					c0.011-1.061-0.841-1.929-1.901-1.94C402.594,230.309,401.725,231.16,401.715,232.221z"/>
				<path style="fill:#EE5253;" d="M387.631,232.079c-0.011,1.061,0.84,1.929,1.901,1.94c1.061,0.011,1.929-0.84,1.94-1.901
					c0.011-1.061-0.84-1.929-1.901-1.94C388.51,230.167,387.642,231.018,387.631,232.079z"/>
				<polyline style="fill:none;stroke:#222F3E;stroke-width:0.35;stroke-miterlimit:10;" points="396.2,226.812 396.2,232.098 
					394.41,232.098 395.82,233.529 				"/>
				<g>
					<path style="fill:#222F3E;" d="M392.892,222.774c0.08,0.264-0.926,0.804-2.247,1.204c-1.321,0.401-2.457,0.512-2.538,0.247
						c-0.08-0.264,0.926-0.804,2.247-1.204C391.676,222.621,392.812,222.51,392.892,222.774z"/>
				</g>
				<g>
					<path style="fill:#222F3E;" d="M400.108,222.774c-0.08,0.264,0.926,0.804,2.247,1.204c1.321,0.401,2.457,0.512,2.538,0.247
						c0.08-0.264-0.926-0.804-2.247-1.204C401.324,222.621,400.188,222.51,400.108,222.774z"/>
				</g>
				<path style="fill:none;stroke:#222F3E;stroke-width:0.35;stroke-miterlimit:10;" d="M393,235c0.856,1.368,2.406,2.144,4,2
					c1.524-0.138,2.862-1.096,3.498-2.5"/>
			</g>
			<path style="fill:#222F3E;" d="M399.039,212.557c0.828,1.435-1.508,4.334-5.217,6.476c-3.71,2.142-7.389,2.715-8.217,1.28
				c-0.829-1.435,1.507-4.334,5.217-6.476C394.531,211.695,398.21,211.122,399.039,212.557z"/>
			<path style="fill:#222F3E;" d="M397.604,212.557c-0.829,1.435,1.507,4.334,5.217,6.476c3.71,2.142,7.389,2.715,8.217,1.28
				c0.828-1.435-1.508-4.334-5.217-6.476C402.111,211.695,398.432,211.122,397.604,212.557z"/>
		</g>
		<g>
			<path style="fill:#3C6382;" d="M413.508,318.129L413.508,318.129c1.025,14.146-9.611,26.444-23.757,27.47l-67.176,4.869
				c-7.073,0.513-13.222-4.806-13.735-11.878l0,0c-0.513-7.073,4.805-13.222,11.878-13.735L413.508,318.129z"/>
		</g>
		<path style="fill:#F6B93B;" d="M423.65,325.045H371V263.61c0-6.083,4.931-11.015,11.015-11.015h30.621
			c6.083,0,11.015,4.931,11.015,11.015V325.045z"/>
		<g>
			<path style="fill:#60A3BC;" d="M426.061,321.475l0,4.203c0,11.862-9.079,21.477-20.279,21.477h-48.736
				c-6.696,0-12.124-5.749-12.124-12.84l0,0c0-7.091,5.428-12.84,12.124-12.84H426.061z"/>
			<path style="fill:#60A3BC;" d="M391.503,423.48l-32.573,5.294L344.599,340.6c-1.462-8.995,4.645-17.471,13.639-18.933v0
				c8.995-1.462,17.471,4.645,18.933,13.639L391.503,423.48z"/>
		</g>
		<path style="fill:#F2C6C2;" d="M366.105,254.214l-41.41,34.085c-3.156,2.598-3.608,7.262-1.011,10.417v0
			c2.598,3.156,7.262,3.608,10.417,1.011l41.411-34.085L366.105,254.214z"/>
		<path style="fill:#F2C6C2;" d="M321.566,241.62c-0.113,17.408-0.225,34.817-0.338,52.226c0.159,4.084,3.599,7.266,7.683,7.107h0
			c4.084-0.159,7.266-3.599,7.107-7.683c-0.82-17.372-1.641-34.744-2.462-52.116C329.56,241.309,325.563,241.464,321.566,241.62z"/>
		<path style="fill:#F6B93B;" d="M350.981,262.939l14.617,17.758l14.284-11.757c4.904-4.036,5.607-11.284,1.571-16.187v0
			c-4.036-4.904-11.284-5.607-16.187-1.571L350.981,262.939z"/>
		<g>
			<path style="fill:#F2C6C2;" d="M426.352,261.309l22.896,48.501c1.745,3.696,0.163,8.107-3.533,9.852l0,0
				c-3.696,1.745-8.107,0.163-9.852-3.533l-22.897-48.501L426.352,261.309z"/>
			<path style="fill:#F2C6C2;" d="M389,309c17.391-0.79,34.782-1.579,52.173-2.369c4.087,0,7.401,3.313,7.401,7.401l0,0
				c0,4.087-3.313,7.401-7.401,7.401c-17.391-0.144-34.782-0.289-52.173-0.433C389,317,389,313,389,309z"/>
			<path style="fill:#F6B93B;" d="M436.303,275.655l-20.799,9.819l-7.898-16.729c-2.711-5.743-0.253-12.597,5.49-15.309l0,0
				c5.743-2.711,12.597-0.253,15.309,5.49L436.303,275.655z"/>
			<polygon style="fill:#F2C6C2;" points="389,309 363.974,321.59 389,321 			"/>
		</g>
		<path style="fill:#3C6382;" d="M338.421,430.698h-33v-89.331c0-9.113,7.387-16.5,16.5-16.5h0c9.113,0,16.5,7.387,16.5,16.5
			V430.698z"/>
		
			<line style="fill:none;stroke:#FFFFFF;stroke-width:0.8957;stroke-miterlimit:10;" x1="366.727" y1="342" x2="383.434" y2="424.792"/>
		<g>
			<path style="fill:#2C3E50;" d="M348.504,324.604H411l0,0c0-2.346-1.608-4.249-3.592-4.249h-58.904V324.604z"/>
			<g>
				<path style="fill:#222F3E;" d="M311.368,324.604h68.925c-4.946-16.949-9.892-33.897-14.838-50.846c-22.975,0-45.95,0-68.925,0
					C301.477,290.707,306.423,307.655,311.368,324.604z"/>
			</g>
			<path style="fill:#FFFFFF;" d="M327.669,301.159c0,4.116,3.337,7.453,7.453,7.453c4.116,0,7.453-3.337,7.453-7.453
				c0-4.116-3.337-7.453-7.453-7.453C331.006,293.706,327.669,297.043,327.669,301.159z"/>
			<circle style="fill:#60A3BC;" cx="313.5" cy="287.5" r="7.5"/>
			
				<rect x="351.709" y="308.913" transform="matrix(0.866 -0.5 0.5 0.866 -107.6721 222.1546)" style="fill:#60A3BC;" width="18" height="6.165"/>
			<circle style="fill:#FF9F43;" cx="364.5" cy="316.5" r="4.5"/>
		</g>
		<g>
			<g>
				<path style="fill:#F2C6C2;" d="M312.879,248.292l10.02,3.068c4.743,1.452,9.766-1.215,11.219-5.959l0,0
					c1.452-4.743-1.216-9.766-5.959-11.219l-10.02-3.068L312.879,248.292z"/>
				<path style="fill:none;stroke:#FC928D;stroke-width:0.5;stroke-miterlimit:10;" d="M322.899,251.36
					c4.743,1.452,9.766-1.215,11.219-5.959l0,0c1.452-4.743-1.216-9.766-5.959-11.219l-10.02-3.068"/>
				<g>
					<path style="fill:#F2C6C2;" d="M304.123,231.534l15.659,4.795c1.189,0.364,2.449-0.305,2.813-1.494l0,0
						c0.364-1.189-0.305-2.449-1.494-2.813l-15.659-4.795c-1.189-0.364-2.449,0.305-2.813,1.494l0,0
						C302.264,229.911,302.933,231.17,304.123,231.534z"/>
					<path style="fill:#F2C6C2;" d="M302.653,235.822l15.849,4.853c1.189,0.364,2.449-0.305,2.813-1.494v0
						c0.364-1.189-0.305-2.449-1.494-2.813l-15.849-4.853c-1.189-0.364-2.449,0.305-2.813,1.494l0,0
						C300.795,234.198,301.464,235.458,302.653,235.822z"/>
					<path style="fill:#F2C6C2;" d="M300.751,239.909l16.445,5.035c1.19,0.364,2.449-0.305,2.813-1.494l0,0
						c0.364-1.189-0.305-2.449-1.494-2.813l-16.445-5.035c-1.189-0.364-2.449,0.305-2.813,1.494l0,0
						C298.892,238.285,299.561,239.545,300.751,239.909z"/>
					<path style="fill:#F2C6C2;" d="M303.448,245.405l12.44,3.809c1.19,0.364,2.449-0.305,2.813-1.494l0,0
						c0.364-1.189-0.305-2.449-1.494-2.813l-12.44-3.809c-1.19-0.364-2.449,0.305-2.813,1.494l0,0
						C301.589,243.781,302.258,245.04,303.448,245.405z"/>
					
						<line style="fill:none;stroke:#D89491;stroke-width:0.6718;stroke-miterlimit:10;" x1="304.975" y1="231.822" x2="315.66" y2="235.093"/>
					
						<line style="fill:none;stroke:#D89491;stroke-width:0.6718;stroke-miterlimit:10;" x1="304.217" y1="236.585" x2="314.902" y2="239.857"/>
					
						<line style="fill:none;stroke:#D89491;stroke-width:0.6718;stroke-miterlimit:10;" x1="304.332" y1="241.151" x2="315.017" y2="244.422"/>
					
						<line style="fill:none;stroke:#D89491;stroke-width:0.6718;stroke-miterlimit:10;" x1="319.506" y1="235.064" x2="316.01" y2="246.79"/>
					<g>
						<path style="fill:#222F3E;" d="M300.396,256.194h19.148c1.578,0,2.857-1.279,2.857-2.857v-36.938
							c0-1.578-1.279-2.857-2.857-2.857h-19.148c-1.578,0-2.857,1.279-2.857,2.857v36.938
							C297.539,254.915,298.818,256.194,300.396,256.194z"/>
						<path style="fill:#FFFFFF;" d="M301.748,254.386h16.34c1.578,0,2.857-1.279,2.857-2.857V218.16
							c0-1.578-1.279-2.857-2.857-2.857h-16.34c-1.578,0-2.857,1.279-2.857,2.857v33.369
							C298.892,253.107,300.171,254.386,301.748,254.386z"/>
						<path style="fill:#222F3E;" d="M305.113,217.188h9.714c1.071,0,1.939-0.868,1.939-1.939v-1.708h-13.591v1.708
							C303.175,216.32,304.043,217.188,305.113,217.188z"/>
						<g style="opacity:0.35;">
							<g>
								<path style="fill:#C8D6E5;" d="M300.191,222.022v7.173c0,0.483,0.391,0.874,0.874,0.874h10.172
									c0.479-0.005,0.866-0.394,0.866-0.874v-7.173c0-0.483-0.391-0.874-0.874-0.874h-10.164
									C300.582,221.148,300.191,221.539,300.191,222.022z"/>
								<polygon style="fill:#8395A7;" points="304.437,230.07 311.237,230.07 307.837,224.18 305.171,228.798 								"/>
								<polygon style="fill:#B1BEC9;" points="301.097,230.07 305.904,230.07 305.171,228.798 303.501,225.906 								"/>
								<path style="fill:#B1BEC9;" d="M303.68,223.789c0,0.798,0.647,1.445,1.445,1.445c0.798,0,1.446-0.647,1.446-1.445
									c0-0.798-0.647-1.445-1.446-1.445C304.327,222.344,303.68,222.991,303.68,223.789z"/>
							</g>
							<g>
								<path style="fill:#C8D6E5;" d="M300.542,232.964v3.569c0,0.24,0.195,0.435,0.435,0.435h5.06
									c0.238-0.002,0.431-0.196,0.431-0.435v-3.569c0-0.24-0.195-0.435-0.435-0.435h-5.056
									C300.737,232.529,300.542,232.724,300.542,232.964z"/>
								<polygon style="fill:#8395A7;" points="302.654,236.967 306.037,236.967 304.346,234.037 303.019,236.335 								"/>
								<polygon style="fill:#B1BEC9;" points="300.993,236.967 303.384,236.967 303.019,236.335 302.189,234.896 								"/>
								<path style="fill:#B1BEC9;" d="M302.278,233.843c0,0.397,0.322,0.719,0.719,0.719c0.397,0,0.719-0.322,0.719-0.719
									c0-0.397-0.322-0.719-0.719-0.719C302.6,233.124,302.278,233.446,302.278,233.843z"/>
							</g>
							<g>
								<path style="fill:#C8D6E5;" d="M300.432,239.373v3.568c0,0.24,0.195,0.435,0.435,0.435h5.06
									c0.238-0.002,0.431-0.196,0.431-0.435v-3.568c0-0.24-0.195-0.435-0.435-0.435h-5.056
									C300.626,238.938,300.432,239.132,300.432,239.373z"/>
								<polygon style="fill:#8395A7;" points="302.544,243.376 305.927,243.376 304.235,240.446 302.909,242.744 								"/>
								<polygon style="fill:#B1BEC9;" points="300.882,243.376 303.274,243.376 302.909,242.744 302.078,241.305 								"/>
								<path style="fill:#B1BEC9;" d="M302.167,240.252c0,0.397,0.322,0.719,0.719,0.719c0.397,0,0.719-0.322,0.719-0.719
									c0-0.397-0.322-0.719-0.719-0.719C302.489,239.533,302.167,239.855,302.167,240.252z"/>
							</g>
							<path style="fill:#C8D6E5;" d="M308.423,233.431h11.271c0.214,0,0.387-0.173,0.387-0.387l0,0
								c0-0.214-0.173-0.387-0.387-0.387h-11.271c-0.214,0-0.387,0.173-0.387,0.387l0,0
								C308.036,233.258,308.21,233.431,308.423,233.431z"/>
							<path style="fill:#C8D6E5;" d="M308.423,234.757h11.271c0.214,0,0.387-0.173,0.387-0.387l0,0
								c0-0.214-0.173-0.387-0.387-0.387h-11.271c-0.214,0-0.387,0.173-0.387,0.387l0,0
								C308.036,234.584,308.21,234.757,308.423,234.757z"/>
							<path style="fill:#C8D6E5;" d="M311.628,236.083h7.956c0.214,0,0.387-0.173,0.387-0.387l0,0c0-0.214-0.173-0.387-0.387-0.387
								h-7.956c-0.214,0-0.387,0.173-0.387,0.387l0,0C311.241,235.91,311.414,236.083,311.628,236.083z"/>
							<path style="fill:#C8D6E5;" d="M308.423,239.951h11.271c0.214,0,0.387-0.173,0.387-0.387l0,0
								c0-0.214-0.173-0.387-0.387-0.387h-11.271c-0.214,0-0.387,0.173-0.387,0.387l0,0
								C308.036,239.778,308.21,239.951,308.423,239.951z"/>
							<path style="fill:#C8D6E5;" d="M311.628,241.277h7.956c0.214,0,0.387-0.173,0.387-0.387l0,0c0-0.214-0.173-0.387-0.387-0.387
								h-7.956c-0.214,0-0.387,0.173-0.387,0.387l0,0C311.241,241.104,311.414,241.277,311.628,241.277z"/>
							<path style="fill:#C8D6E5;" d="M311.628,242.713h7.956c0.214,0,0.387-0.173,0.387-0.387l0,0c0-0.214-0.173-0.387-0.387-0.387
								h-7.956c-0.214,0-0.387,0.173-0.387,0.387l0,0C311.241,242.54,311.414,242.713,311.628,242.713z"/>
							<path style="fill:#C8D6E5;" d="M312.401,245.807H301.13c-0.214,0-0.387-0.173-0.387-0.387l0,0
								c0-0.214,0.173-0.387,0.387-0.387h11.271c0.214,0,0.387,0.173,0.387,0.387l0,0
								C312.788,245.634,312.615,245.807,312.401,245.807z"/>
							<path style="fill:#C8D6E5;" d="M309.197,247.133h-7.956c-0.214,0-0.387-0.173-0.387-0.387l0,0
								c0-0.214,0.173-0.387,0.387-0.387h7.956c0.214,0,0.387,0.173,0.387,0.387l0,0C309.583,246.96,309.41,247.133,309.197,247.133
								z"/>
							<path style="fill:#C8D6E5;" d="M309.197,248.57h-7.956c-0.214,0-0.387-0.173-0.387-0.387l0,0
								c0-0.214,0.173-0.387,0.387-0.387h7.956c0.214,0,0.387,0.173,0.387,0.387l0,0C309.583,248.396,309.41,248.57,309.197,248.57z
								"/>
						</g>
						
							<ellipse transform="matrix(0.9239 -0.3827 0.3827 0.9239 -66.3719 136.8464)" style="fill:#F6B93B;" cx="310.8" cy="235.26" rx="8.2" ry="8.2"/>
						<g>
							<g>
								<g>
									<path style="fill:#3C6382;" d="M316.947,234.566c-0.027,0.135-0.053,0.288-0.098,0.432c-0.08,0.288-0.187,0.576-0.32,0.872
										c-0.071,0.153-0.151,0.297-0.231,0.45c-0.543,0.998-1.387,2.051-2.481,3.103c-0.125,0.117-0.249,0.234-0.373,0.351
										c-0.658,0.594-1.405,1.196-2.223,1.781l-0.062,0.036l-0.204,0.126l-0.009,0.009l-0.231-0.162
										c-0.018-0.009-0.027-0.018-0.044-0.027c-0.943-0.675-1.787-1.376-2.526-2.078c-0.142-0.135-0.276-0.261-0.4-0.396
										c-0.276-0.27-0.525-0.54-0.756-0.809c-0.107-0.126-0.213-0.252-0.32-0.387c-0.88-1.097-1.458-2.167-1.663-3.139
										c-0.036-0.144-0.053-0.288-0.071-0.432c-0.044-0.459,0-0.89,0.151-1.286c0.044-0.135,0.107-0.27,0.187-0.396
										c0.08-0.153,0.178-0.306,0.293-0.45c0.391-0.495,0.96-0.908,1.619-1.007c0.364-0.054,0.747-0.009,1.129,0.126
										c0.142,0.054,0.294,0.117,0.436,0.198c0.489,0.27,0.96,0.683,1.37,1.223c0.116,0.153,0.231,0.324,0.347,0.495
										c0.178,0.297,0.347,0.63,0.489,0.98c0,0,0,0.009,0.009,0.009c0.356-0.872,0.845-1.592,1.396-2.105
										c0.116-0.117,0.24-0.216,0.365-0.315c0.649-0.486,1.361-0.71,2.019-0.611c1.005,0.153,1.805,1.052,2.099,1.853
										c0.027,0.072,0.045,0.144,0.062,0.216c0.044,0.153,0.071,0.315,0.089,0.477
										C317.009,233.973,317.001,234.261,316.947,234.566z"/>
								</g>
							</g>
						</g>
					</g>
					<path style="fill:#F2C6C2;" d="M316.977,234.935l7.607,3.157c1.149,0.477,2.467-0.068,2.944-1.217v0
						c0.477-1.149-0.068-2.467-1.217-2.944l-7.607-3.157c-1.149-0.477-2.467,0.068-2.944,1.217l0,0
						C315.283,233.14,315.828,234.458,316.977,234.935z"/>
				</g>
			</g>
		</g>
	</g>
	<g>
		<g>
			
				<ellipse transform="matrix(0.7071 -0.7071 0.7071 0.7071 -1.7273 113.5129)" style="fill:#F6B93B;" cx="136.159" cy="58.841" rx="12.841" ry="12.841"/>
			<g>
				<path style="fill:none;stroke:#2C3E50;stroke-width:0.8957;stroke-miterlimit:10;" d="M132.207,59.519
					c0.583,1.486,1.948,2.51,3.493,2.62c1.741,0.124,3.407-0.934,4.08-2.62"/>
				<g>
					<path style="fill:#222F3E;" d="M134.172,56.681c0,0.482-0.391,0.873-0.873,0.873c-0.482,0-0.873-0.391-0.873-0.873
						c0-0.482,0.391-0.873,0.873-0.873C133.781,55.807,134.172,56.198,134.172,56.681z"/>
				</g>
				<g>
					<path style="fill:#222F3E;" d="M139.413,56.681c0,0.482-0.391,0.873-0.873,0.873c-0.482,0-0.873-0.391-0.873-0.873
						c0-0.482,0.391-0.873,0.873-0.873C139.022,55.807,139.413,56.198,139.413,56.681z"/>
				</g>
			</g>
		</g>
		<g>
			
				<ellipse transform="matrix(0.7071 -0.7071 0.7071 0.7071 -166.4085 117.9372)" style="fill:#F6B93B;" cx="59.159" cy="259.841" rx="12.841" ry="12.841"/>
			<g>
				<path style="fill:none;stroke:#2C3E50;stroke-width:0.8957;stroke-miterlimit:10;" d="M55.207,260.519
					c0.583,1.486,1.948,2.51,3.494,2.62c1.741,0.124,3.407-0.934,4.08-2.62"/>
				<g>
					<path style="fill:#222F3E;" d="M57.172,257.681c0,0.482-0.391,0.873-0.873,0.873c-0.482,0-0.873-0.391-0.873-0.873
						c0-0.482,0.391-0.873,0.873-0.873C56.781,256.807,57.172,257.198,57.172,257.681z"/>
				</g>
				<g>
					<path style="fill:#222F3E;" d="M62.413,257.681c0,0.482-0.391,0.873-0.873,0.873c-0.482,0-0.873-0.391-0.873-0.873
						c0-0.482,0.391-0.873,0.873-0.873C62.022,256.807,62.413,257.198,62.413,257.681z"/>
				</g>
			</g>
		</g>
		<g>
			<g>
				<path style="fill:#60A3BC;" d="M115.894,126H64.106c-4.477,0-8.106-3.629-8.106-8.106V92.106C56,87.629,59.629,84,64.106,84
					h51.788c4.477,0,8.106,3.629,8.106,8.106v25.788C124,122.371,120.371,126,115.894,126z"/>
				<polygon style="fill:#60A3BC;" points="83.099,135 75.199,125.816 91,125.816 				"/>
			</g>
			<g>
				<path style="fill:#F6B93B;" d="M80.553,105.224c0,1.534-1.243,2.777-2.776,2.777c-1.534,0-2.777-1.243-2.777-2.777
					c0-1.533,1.243-2.777,2.777-2.777C79.31,102.447,80.553,103.69,80.553,105.224z"/>
				<path style="fill:#F6B93B;" d="M89.853,102.47c1.521,0.195,2.596,1.586,2.401,3.107c-0.195,1.521-1.586,2.596-3.107,2.401
					c-1.521-0.195-2.596-1.586-2.401-3.107C86.941,103.349,88.332,102.274,89.853,102.47z"/>
				<path style="fill:#F6B93B;" d="M101.576,102.47c1.521,0.195,2.596,1.586,2.401,3.107c-0.195,1.521-1.586,2.596-3.107,2.401
					c-1.521-0.195-2.596-1.586-2.401-3.107C98.664,103.349,100.055,102.274,101.576,102.47z"/>
			</g>
		</g>
		<g>
			<g>
				<path style="fill:#60A3BC;" d="M457.106,232.824h30.455c4.477,0,8.106-3.629,8.106-8.106v-12.612
					c0-4.477-3.629-8.106-8.106-8.106h-30.455c-4.477,0-8.106,3.629-8.106,8.106v12.612
					C449,229.194,452.629,232.824,457.106,232.824z"/>
				<polygon style="fill:#60A3BC;" points="477.069,239 482.491,232.697 471.647,232.697 				"/>
			</g>
			<g>
				<path style="fill:#FECA57;" d="M478.816,218.565c0,1.052,0.853,1.906,1.905,1.906c1.052,0,1.906-0.853,1.906-1.906
					c0-1.052-0.853-1.905-1.906-1.905C479.67,216.66,478.816,217.513,478.816,218.565z"/>
				<path style="fill:#FECA57;" d="M472.434,216.675c-1.044,0.134-1.781,1.089-1.648,2.132c0.134,1.044,1.089,1.781,2.133,1.648
					c1.044-0.134,1.781-1.089,1.648-2.132C474.433,217.279,473.478,216.541,472.434,216.675z"/>
				<path style="fill:#FECA57;" d="M464.389,216.675c-1.044,0.134-1.781,1.089-1.648,2.132c0.134,1.044,1.089,1.781,2.132,1.648
					c1.044-0.134,1.781-1.089,1.648-2.132C466.387,217.279,465.433,216.541,464.389,216.675z"/>
			</g>
		</g>
		<g>
			<g>
				<g>
					<path style="fill:#F6B93B;" d="M223.92,53.209c-0.041,0.205-0.081,0.438-0.149,0.657c-0.122,0.438-0.285,0.877-0.488,1.329
						c-0.108,0.233-0.23,0.452-0.352,0.685c-0.826,1.521-2.113,3.123-3.779,4.726c-0.19,0.178-0.379,0.356-0.569,0.534
						c-1.002,0.904-2.14,1.822-3.386,2.712l-0.095,0.055l-0.312,0.192l-0.014,0.014l-0.352-0.247
						c-0.027-0.014-0.041-0.027-0.068-0.041c-1.436-1.027-2.722-2.096-3.846-3.164c-0.217-0.205-0.42-0.397-0.61-0.603
						c-0.42-0.411-0.799-0.822-1.151-1.233c-0.163-0.192-0.325-0.383-0.488-0.589c-1.341-1.671-2.221-3.301-2.533-4.78
						c-0.054-0.219-0.081-0.438-0.108-0.658c-0.068-0.699,0-1.356,0.23-1.959c0.068-0.205,0.163-0.411,0.285-0.603
						c0.122-0.233,0.271-0.466,0.447-0.685c0.596-0.753,1.463-1.383,2.465-1.534c0.555-0.082,1.138-0.014,1.72,0.192
						c0.217,0.082,0.447,0.178,0.664,0.301c0.745,0.411,1.463,1.041,2.086,1.863c0.176,0.233,0.352,0.493,0.528,0.753
						c0.271,0.452,0.528,0.959,0.745,1.493c0,0,0,0.014,0.014,0.014c0.542-1.329,1.287-2.424,2.126-3.205
						c0.176-0.178,0.366-0.329,0.555-0.479c0.989-0.74,2.072-1.082,3.075-0.931c1.53,0.233,2.749,1.603,3.196,2.822
						c0.041,0.11,0.068,0.219,0.095,0.329c0.068,0.233,0.108,0.479,0.135,0.726C224.014,52.305,224.001,52.743,223.92,53.209z"/>
				</g>
			</g>
		</g>
		<g>
			<g>
				<g>
					<path style="fill:#FECA57;" d="M390.92,196.209c-0.041,0.205-0.081,0.438-0.149,0.657c-0.122,0.438-0.285,0.877-0.488,1.329
						c-0.108,0.233-0.23,0.452-0.352,0.685c-0.826,1.521-2.113,3.123-3.779,4.726c-0.19,0.178-0.379,0.356-0.569,0.534
						c-1.002,0.904-2.14,1.822-3.386,2.712l-0.095,0.055l-0.311,0.192l-0.013,0.014l-0.352-0.247
						c-0.027-0.014-0.041-0.027-0.068-0.041c-1.436-1.027-2.722-2.096-3.846-3.164c-0.217-0.206-0.42-0.397-0.609-0.603
						c-0.42-0.411-0.799-0.822-1.151-1.233c-0.163-0.192-0.325-0.384-0.488-0.589c-1.341-1.671-2.221-3.301-2.533-4.781
						c-0.054-0.219-0.081-0.438-0.108-0.657c-0.068-0.699,0-1.356,0.23-1.959c0.068-0.206,0.163-0.411,0.285-0.603
						c0.122-0.233,0.271-0.466,0.447-0.685c0.596-0.753,1.463-1.383,2.465-1.534c0.555-0.082,1.138-0.014,1.72,0.192
						c0.217,0.082,0.447,0.178,0.664,0.301c0.745,0.411,1.463,1.041,2.086,1.863c0.176,0.233,0.352,0.493,0.528,0.753
						c0.271,0.452,0.528,0.959,0.745,1.493c0,0,0,0.014,0.014,0.014c0.542-1.329,1.287-2.424,2.126-3.205
						c0.176-0.178,0.366-0.329,0.555-0.479c0.989-0.74,2.072-1.082,3.075-0.931c1.53,0.233,2.749,1.603,3.196,2.822
						c0.041,0.11,0.068,0.219,0.095,0.329c0.068,0.233,0.108,0.479,0.135,0.726C391.014,195.305,391.001,195.743,390.92,196.209z"/>
				</g>
			</g>
		</g>
		<circle style="fill:none;stroke:#FECA57;stroke-miterlimit:10;" cx="70" cy="61" r="8"/>
		<circle style="fill:none;stroke:#FECA57;stroke-miterlimit:10;" cx="391.5" cy="83.5" r="8"/>
		<circle style="fill:none;stroke:#FECA57;stroke-miterlimit:10;" cx="56.5" cy="224.5" r="8"/>
		<circle style="fill:#F6B93B;" cx="73" cy="153" r="8"/>
		<circle style="fill:#FECA57;" cx="442" cy="233" r="4"/>
		<circle style="fill:#FECA57;" cx="481" cy="187" r="4"/>
		<circle style="fill:#F6B93B;" cx="270" cy="62" r="4"/>
		<circle style="fill:#FECA57;" cx="109" cy="77" r="4"/>
		<circle style="fill:#F6B93B;" cx="335" cy="43" r="4"/>
		<circle style="fill:#FECA57;" cx="429" cy="137" r="4"/>
		<g>
			<g>
				<path style="fill:#60A3BC;" d="M433,116.56v50.86c0,4.47-3.63,8.1-8.11,8.1H237.7c-4.47,0-8.1-3.63-8.1-8.1v-50.86
					c0-4.48,3.63-8.1,8.1-8.1h187.19c3.18,0,5.92,1.82,7.25,4.48C432.69,114.03,433,115.26,433,116.56z"/>
				<polygon style="fill:#60A3BC;" points="324.772,189.894 315.255,175.228 334.289,175.228 				"/>
			</g>
			<g>
				<g>
					<g>
						<polygon style="fill:#FFFFFF;" points="281.415,140.022 290.439,141.436 283.827,147.739 285.271,156.758 277.234,152.418 
							269.102,156.578 270.746,147.593 264.277,141.144 273.33,139.932 277.464,131.786 						"/>
					</g>
					<g>
						<polygon style="fill:#FECA57;" points="310.253,140.022 319.278,141.436 312.666,147.739 314.109,156.758 306.072,152.418 
							297.94,156.578 299.585,147.593 293.115,141.144 302.169,139.932 306.302,131.786 						"/>
					</g>
					<g>
						<polygon style="fill:#FECA57;" points="339.092,140.022 348.116,141.436 341.504,147.739 342.948,156.758 334.911,152.418 
							326.778,156.578 328.423,147.593 321.953,141.144 331.007,139.932 335.141,131.786 						"/>
					</g>
					<g>
						<polygon style="fill:#FECA57;" points="368.531,140.022 377.555,141.436 370.943,147.739 372.387,156.758 364.35,152.418 
							356.217,156.578 357.862,147.593 351.393,141.144 360.446,139.932 364.58,131.786 						"/>
					</g>
					<g>
						<polygon style="fill:#FECA57;" points="397.97,140.022 406.994,141.436 400.382,147.739 401.826,156.758 393.789,152.418 
							385.657,156.578 387.301,147.593 380.832,141.144 389.885,139.932 394.019,131.786 						"/>
					</g>
				</g>
			</g>
		</g>
		<g>
			<path style="fill:#222F3E;" d="M465.62,204v3.47c0,4.47-3.63,8.1-8.11,8.1H449h-0.05v2H449h10.51c4.48,0,8.11-3.63,8.11-8.1V204
				H465.62z"/>
		</g>
		<g>
			<g>
				<path style="fill:#F6B93B;" d="M457.561,215.824h-30.455c-4.477,0-8.106-3.629-8.106-8.106v-12.612
					c0-4.477,3.629-8.106,8.106-8.106h30.455c4.477,0,8.106,3.629,8.106,8.106v12.612
					C465.667,212.194,462.038,215.824,457.561,215.824z"/>
				<polygon style="fill:#F6B93B;" points="437.598,222 432.176,215.697 443.02,215.697 				"/>
			</g>
			<g>
				<path style="fill:#60A3BC;" d="M435.85,201.565c0,1.052-0.853,1.906-1.905,1.906c-1.052,0-1.906-0.853-1.906-1.906
					c0-1.052,0.853-1.905,1.906-1.905C434.997,199.66,435.85,200.513,435.85,201.565z"/>
				<path style="fill:#60A3BC;" d="M442.233,199.675c1.044,0.134,1.781,1.089,1.648,2.132c-0.134,1.044-1.089,1.781-2.133,1.648
					c-1.044-0.134-1.781-1.089-1.648-2.132C440.234,200.279,441.189,199.541,442.233,199.675z"/>
				<path style="fill:#60A3BC;" d="M450.278,199.675c1.044,0.134,1.781,1.089,1.647,2.132c-0.134,1.044-1.089,1.781-2.132,1.648
					c-1.044-0.134-1.781-1.089-1.648-2.132C448.279,200.279,449.234,199.541,450.278,199.675z"/>
			</g>
		</g>
		<g>
			<g>
				<path style="fill:#222F3E;" d="M449,109.84c0,6.26-2.9,11.84-7.43,15.47c-2.57,1.39-5.48,2.22-8.57,2.35v1.65
					c-1.24,0.24-2.53,0.37-3.84,0.37c-10.96,0-19.84-8.88-19.84-19.84c0-0.46,0.02-0.93,0.05-1.38h2.97
					c-0.02-0.2-0.02-0.41-0.02-0.62c0-6.26,2.9-11.84,7.43-15.47c2.8-1.51,6-2.37,9.41-2.37C440.12,90,449,98.88,449,109.84z"/>
			</g>
			<path style="fill:#FECA57;" d="M452,107.84c0,7.55-4.22,14.12-10.43,17.47c-2.57,1.39-5.48,2.22-8.57,2.35
				c-0.28,0.01-0.56,0.02-0.84,0.02c-10.75,0-19.5-8.55-19.82-19.22c-0.02-0.2-0.02-0.41-0.02-0.62c0-6.26,2.9-11.84,7.43-15.47
				c3.39-2.74,7.71-4.37,12.41-4.37C443.12,88,452,96.88,452,107.84z"/>
			<g>
				<path style="fill:none;stroke:#2C3E50;stroke-width:1.3839;stroke-miterlimit:10;" d="M426.053,108.888
					c0.901,2.296,3.01,3.878,5.398,4.049c2.69,0.192,5.264-1.443,6.304-4.049"/>
				<g>
					<path style="fill:#222F3E;" d="M429.09,104.503c0,0.745-0.604,1.349-1.349,1.349c-0.745,0-1.349-0.604-1.349-1.349
						c0-0.745,0.604-1.349,1.349-1.349C428.486,103.153,429.09,103.757,429.09,104.503z"/>
				</g>
				<g>
					<path style="fill:#222F3E;" d="M437.187,104.503c0,0.745-0.604,1.349-1.349,1.349c-0.745,0-1.35-0.604-1.35-1.349
						c0-0.745,0.604-1.349,1.35-1.349C436.582,103.153,437.187,103.757,437.187,104.503z"/>
				</g>
			</g>
		</g>
	</g>
	<g>
		<g>
			<polygon style="fill:#D68A85;" points="165.76,448.81 144.73,449.03 144.5,426.29 144.45,421.48 144.4,416.31 165.43,416.1 
				165.47,420.49 165.58,430.72 			"/>
			<polygon style="fill:#BF6462;" points="165.58,430.72 144.5,426.29 144.45,421.48 165.47,420.49 			"/>
			<g>
				<path style="fill:#E55039;" d="M166,433v21h-21c-0.33-8-0.67-16-1-24c0.84,0.12,1.69,0.23,2.53,0.34c0.33,0.05,0.67,0.1,1,0.14
					c1.49,0.2,2.99,0.41,4.48,0.61c0.34,0.05,0.67,0.09,1.01,0.14c1.49,0.2,2.99,0.41,4.48,0.61c0.33,0.05,0.67,0.09,1,0.14
					c1.5,0.2,2.99,0.41,4.49,0.61c0.33,0.05,0.67,0.09,1,0.14C164.66,432.82,165.33,432.91,166,433z"/>
				<g>
					<path style="fill:#FFFFFF;" d="M148.03,454h-1l-0.5-23.66c0.33,0.05,0.67,0.1,1,0.14L148.03,454z"/>
				</g>
				<g>
					<path style="fill:#FFFFFF;" d="M153.5,454h-1l-0.49-22.91c0.34,0.05,0.67,0.09,1.01,0.14L153.5,454z"/>
				</g>
				<g>
					<path style="fill:#FFFFFF;" d="M158.97,454h-1l-0.47-22.16c0.33,0.05,0.67,0.09,1,0.14L158.97,454z"/>
				</g>
				<g>
					<path style="fill:#FFFFFF;" d="M164.44,454h-1l-0.45-21.41c0.33,0.05,0.67,0.09,1,0.14L164.44,454z"/>
				</g>
				<path style="fill:#F6B93B;" d="M144.581,446.639v16.425h50.586c-0.149-2.325-0.757-5.695-3.165-8.346
					c-1.301-1.433-2.792-2.188-4.791-2.768c-2.51-0.729-5.823-1.181-10.571-2.353c-4.52-1.115-8.076-2.303-10.193-3.055
					c-0.016-0.006-0.033-0.012-0.048-0.018L144.581,446.639z"/>
				
					<rect x="144.563" y="446.562" transform="matrix(-1 -1.224647e-16 1.224647e-16 -1 293.5594 909.6255)" style="fill:#E58E26;" width="4.433" height="16.501"/>
				<path style="fill:#F6B93B;" d="M154.199,446.568h11.982v-10.139h-1.844C158.738,436.429,154.199,440.969,154.199,446.568
					L154.199,446.568z"/>
				<path style="fill:#E58E26;" d="M195.119,465.861h-50.486c-0.664,0-1.202-0.619-1.202-1.383l0,0c0-0.764,0.538-1.383,1.202-1.383
					h50.486c0.664,0,1.202,0.619,1.202,1.383l0,0C196.321,465.242,195.782,465.861,195.119,465.861z"/>
				<g>
					<path style="fill:#E58E26;" d="M166.132,448.117c0,1.869,1.286,3.556,3.184,3.991l12.979,2.966
						c2.206,0.504,4.403-0.875,4.907-3.081c0.003-0.015,0.007-0.028,0.009-0.043c-2.51-0.729-5.823-1.181-10.571-2.353
						c-4.52-1.115-8.076-2.303-10.193-3.055c-0.088,0.21-0.159,0.43-0.211,0.659C166.166,447.509,166.132,447.815,166.132,448.117z"
						/>
					<g>
						
							<line style="fill:none;stroke:#222F3E;stroke-width:0.5;stroke-miterlimit:10;" x1="183.758" y1="451.141" x2="181.309" y2="454.848"/>
						
							<line style="fill:none;stroke:#222F3E;stroke-width:0.5;stroke-miterlimit:10;" x1="180.158" y1="450.403" x2="177.774" y2="454.04"/>
						
							<line style="fill:none;stroke:#222F3E;stroke-width:0.5;stroke-miterlimit:10;" x1="176.71" y1="449.615" x2="174.326" y2="453.252"/>
						
							<line style="fill:none;stroke:#222F3E;stroke-width:0.5;stroke-miterlimit:10;" x1="173.558" y1="448.827" x2="171.174" y2="452.464"/>
						
							<line style="fill:none;stroke:#222F3E;stroke-width:0.5;stroke-miterlimit:10;" x1="170.406" y1="447.842" x2="168.021" y2="451.479"/>
					</g>
				</g>
				<path style="fill:#E58E26;" d="M144.514,447.597h2.266v-4.138c0-1.251-1.014-2.266-2.266-2.266l0,0V447.597z"/>
			</g>
		</g>
		<g>
			<polygon style="fill:#D68A85;" points="103.991,448.81 125.021,449.03 125.251,426.29 125.301,421.48 125.351,416.31 
				104.321,416.1 104.281,420.49 104.171,430.72 			"/>
			<polygon style="fill:#BF6462;" points="104.171,430.72 125.251,426.29 125.301,421.48 104.281,420.49 			"/>
			<g>
				<path style="fill:#E55039;" d="M103.751,433v21h21c0.33-8,0.67-16,1-24c-0.84,0.12-1.69,0.23-2.53,0.34
					c-0.33,0.05-0.67,0.1-1,0.14c-1.49,0.2-2.99,0.41-4.48,0.61c-0.34,0.05-0.67,0.09-1.01,0.14c-1.49,0.2-2.99,0.41-4.48,0.61
					c-0.33,0.05-0.67,0.09-1,0.14c-1.5,0.2-2.99,0.41-4.49,0.61c-0.33,0.05-0.67,0.09-1,0.14
					C105.091,432.82,104.421,432.91,103.751,433z"/>
				<g>
					<path style="fill:#FFFFFF;" d="M121.721,454h1l0.5-23.66c-0.33,0.05-0.67,0.1-1,0.14L121.721,454z"/>
				</g>
				<g>
					<path style="fill:#FFFFFF;" d="M116.251,454h1l0.49-22.91c-0.34,0.05-0.67,0.09-1.01,0.14L116.251,454z"/>
				</g>
				<g>
					<path style="fill:#FFFFFF;" d="M110.781,454h1l0.47-22.16c-0.33,0.05-0.67,0.09-1,0.14L110.781,454z"/>
				</g>
				<g>
					<path style="fill:#FFFFFF;" d="M105.311,454h1l0.45-21.41c-0.33,0.05-0.67,0.09-1,0.14L105.311,454z"/>
				</g>
				<path style="fill:#F6B93B;" d="M125.17,446.639v16.425H74.584c0.149-2.325,0.757-5.695,3.165-8.346
					c1.301-1.433,2.792-2.188,4.791-2.768c2.51-0.729,5.823-1.181,10.571-2.353c4.52-1.115,8.076-2.303,10.193-3.055
					c0.016-0.006,0.033-0.012,0.048-0.018L125.17,446.639z"/>
				<rect x="120.755" y="446.562" style="fill:#E58E26;" width="4.433" height="16.501"/>
				<path style="fill:#F6B93B;" d="M115.552,446.568H103.57v-10.139h1.843C111.013,436.429,115.552,440.969,115.552,446.568
					L115.552,446.568z"/>
				<path style="fill:#E58E26;" d="M74.632,465.861h50.486c0.664,0,1.202-0.619,1.202-1.383l0,0c0-0.764-0.538-1.383-1.202-1.383
					H74.632c-0.664,0-1.202,0.619-1.202,1.383l0,0C73.43,465.242,73.969,465.861,74.632,465.861z"/>
				<g>
					<path style="fill:#E58E26;" d="M103.618,448.117c0,1.869-1.286,3.556-3.184,3.991l-12.979,2.966
						c-2.206,0.504-4.403-0.875-4.907-3.081c-0.003-0.015-0.007-0.028-0.009-0.043c2.51-0.729,5.823-1.181,10.571-2.353
						c4.52-1.115,8.076-2.303,10.193-3.055c0.088,0.21,0.159,0.43,0.211,0.659C103.585,447.509,103.618,447.815,103.618,448.117z"/>
					<g>
						
							<line style="fill:none;stroke:#222F3E;stroke-width:0.5;stroke-miterlimit:10;" x1="85.993" y1="451.141" x2="88.442" y2="454.848"/>
						
							<line style="fill:none;stroke:#222F3E;stroke-width:0.5;stroke-miterlimit:10;" x1="89.593" y1="450.403" x2="91.977" y2="454.04"/>
						
							<line style="fill:none;stroke:#222F3E;stroke-width:0.5;stroke-miterlimit:10;" x1="93.041" y1="449.615" x2="95.425" y2="453.252"/>
						
							<line style="fill:none;stroke:#222F3E;stroke-width:0.5;stroke-miterlimit:10;" x1="96.193" y1="448.827" x2="98.577" y2="452.464"/>
						
							<line style="fill:none;stroke:#222F3E;stroke-width:0.5;stroke-miterlimit:10;" x1="99.345" y1="447.842" x2="101.73" y2="451.479"/>
					</g>
				</g>
				<path style="fill:#E58E26;" d="M125.237,447.597h-2.266v-4.138c0-1.251,1.014-2.266,2.266-2.266l0,0V447.597z"/>
			</g>
		</g>
		<path style="fill:#3C6382;" d="M182.782,216.537l-17.947,7.626l-17.304-40.726c-2.106-4.956,0.205-10.681,5.161-12.786l0,0
			c4.956-2.106,10.681,0.205,12.786,5.161L182.782,216.537z"/>
		<g>
			<path style="fill:#F6B93B;" d="M148.185,218.725h-38.514V143.04c0-10.635,8.622-19.257,19.257-19.257l0,0
				c10.635,0,19.257,8.622,19.257,19.257V218.725z"/>
			<g>
				<path style="fill:#D68A85;" d="M123.91,144.726c1.129,2.467,0.294,5.268-1.865,6.256c-2.159,0.988-4.824-0.211-5.953-2.678
					c-1.129-2.467-0.294-5.268,1.864-6.256C120.115,141.059,122.781,142.259,123.91,144.726z"/>
				<path style="fill:none;stroke:#222F3E;stroke-width:0.3135;stroke-miterlimit:10;" d="M120.154,144.255
					c-0.156-0.024-1.242-0.175-1.977,0.535c-0.793,0.767-0.873,2.242,0.004,3.396"/>
			</g>
			<rect x="126.627" y="155.99" style="fill:#D68A85;" width="14.88" height="16.864"/>
			<path style="fill:#BF6462;" d="M126.627,155.99v9.68c1.452,0.056,4.76,0.033,8.302-1.427c3.99-1.644,5.909-4.133,6.577-5.111
				c0-1.047,0-2.095,0-3.143H126.627z"/>
			<path style="fill:#D68A85;" d="M144.889,150.939c-0.71,3.298-2.232,6.151-4.263,8.139c-1.821,1.776-4.053,2.865-6.506,2.942
				c-2.687,0.089-5.196-1.044-7.239-3.02c-2.043-1.965-3.609-4.763-4.419-8.039c-0.333-1.355-0.533-2.798-0.589-4.297
				c-0.289-8.694,4.719-15.922,11.203-16.133c6.484-0.211,11.969,6.662,12.258,15.356
				C145.389,147.641,145.233,149.34,144.889,150.939z"/>
			<g>
				<g>
					<path style="fill:#222F3E;" d="M139.649,144.958c0.028,0.383,0.361,0.67,0.744,0.641c0.383-0.028,0.67-0.361,0.641-0.744
						c-0.028-0.382-0.361-0.67-0.744-0.641C139.907,144.242,139.62,144.575,139.649,144.958z"/>
				</g>
				<g>
					<path style="fill:#222F3E;" d="M128.995,145.747c0.029,0.383,0.362,0.67,0.744,0.641c0.383-0.028,0.67-0.362,0.642-0.744
						c-0.029-0.382-0.361-0.67-0.744-0.641C129.254,145.031,128.967,145.365,128.995,145.747z"/>
				</g>
				<path style="fill:#EE5253;" d="M129.802,149.233c0.011,1.061-0.84,1.929-1.901,1.94c-1.061,0.011-1.929-0.84-1.94-1.901
					c-0.011-1.061,0.841-1.929,1.901-1.94C128.923,147.322,129.792,148.173,129.802,149.233z"/>
				<path style="fill:#EE5253;" d="M143.886,149.091c0.011,1.061-0.84,1.929-1.901,1.94c-1.061,0.011-1.929-0.84-1.94-1.901
					c-0.011-1.061,0.84-1.929,1.901-1.94C143.007,147.179,143.875,148.03,143.886,149.091z"/>
				<polyline style="fill:none;stroke:#222F3E;stroke-width:0.35;stroke-miterlimit:10;" points="135.317,143.825 135.317,149.11 
					137.107,149.11 135.697,150.541 				"/>
				<g>
					<path style="fill:#222F3E;" d="M138.625,139.786c-0.08,0.264,0.926,0.803,2.247,1.204c1.321,0.401,2.457,0.512,2.537,0.247
						c0.08-0.264-0.926-0.803-2.247-1.204C139.841,139.633,138.705,139.522,138.625,139.786z"/>
				</g>
				<g>
					<path style="fill:#222F3E;" d="M131.409,139.786c0.08,0.264-0.926,0.803-2.247,1.204c-1.321,0.401-2.457,0.512-2.537,0.247
						c-0.08-0.264,0.926-0.803,2.247-1.204C130.193,139.633,131.329,139.522,131.409,139.786z"/>
				</g>
				<circle style="fill:none;stroke:#3C6382;stroke-miterlimit:10;" cx="127.517" cy="146.012" r="4.5"/>
				<circle style="fill:none;stroke:#3C6382;stroke-miterlimit:10;" cx="141.517" cy="146.012" r="4.5"/>
				<line style="fill:none;stroke:#3C6382;stroke-miterlimit:10;" x1="137.158" y1="144.905" x2="131.875" y2="144.907"/>
				<path style="fill:none;stroke:#222F3E;stroke-width:0.35;stroke-miterlimit:10;" d="M138.517,152.012
					c-0.856,1.368-2.406,2.144-4,2c-1.524-0.138-2.862-1.096-3.498-2.5"/>
			</g>
		</g>
		<path style="fill:#F6B93B;" d="M140.407,136.931h-13.314v-1.536c0-3.676,2.98-6.657,6.657-6.657l0,0
			c3.676,0,6.657,2.98,6.657,6.657V136.931z"/>
		<path style="fill:#3C6382;" d="M84.334,234.452L84.334,234.452c-4.673-2.268-6.622-7.895-4.354-12.567l21.828-44.967
			c2.268-4.673,7.895-6.622,12.567-4.354l0,0c4.673,2.268,6.622,7.895,4.354,12.567l-21.828,44.967
			C94.633,234.771,89.007,236.72,84.334,234.452z"/>
		<g>
			
				<rect x="198.268" y="164.167" transform="matrix(-0.8473 -0.5311 0.5311 -0.8473 286.2085 433.9922)" style="fill:#D68A85;" width="14.435" height="23.38"/>
			<g>
				<path style="fill:#D68A85;" d="M226.133,169.529l-10.02,3.068c-4.743,1.452-9.766-1.215-11.218-5.959l0,0
					c-1.452-4.743,1.215-9.766,5.959-11.219l10.02-3.068L226.133,169.529z"/>
				<g>
					<path style="fill:#F2C6C2;" d="M234.889,152.77l-15.659,4.795c-1.189,0.364-2.449-0.305-2.813-1.494l0,0
						c-0.364-1.189,0.305-2.449,1.494-2.813l15.659-4.795c1.189-0.364,2.449,0.305,2.813,1.494l0,0
						C236.748,151.147,236.079,152.406,234.889,152.77z"/>
					<path style="fill:#F2C6C2;" d="M236.358,157.058l-15.849,4.853c-1.189,0.364-2.449-0.305-2.813-1.494v0
						c-0.364-1.189,0.305-2.449,1.494-2.813l15.85-4.853c1.189-0.364,2.449,0.305,2.813,1.494l0,0
						C238.217,155.434,237.548,156.694,236.358,157.058z"/>
					<path style="fill:#F2C6C2;" d="M238.261,161.145l-16.445,5.035c-1.189,0.364-2.449-0.305-2.813-1.494l0,0
						c-0.364-1.189,0.305-2.449,1.494-2.813l16.445-5.035c1.189-0.364,2.449,0.305,2.813,1.494l0,0
						C240.119,159.521,239.45,160.781,238.261,161.145z"/>
					<path style="fill:#D68A85;" d="M235.564,166.641l-12.44,3.809c-1.189,0.364-2.449-0.305-2.813-1.494l0,0
						c-0.364-1.189,0.305-2.449,1.494-2.813l12.44-3.809c1.19-0.364,2.449,0.305,2.813,1.494l0,0
						C237.423,165.017,236.753,166.277,235.564,166.641z"/>
					
						<line style="fill:none;stroke:#D89491;stroke-width:0.6718;stroke-miterlimit:10;" x1="234.036" y1="153.058" x2="223.351" y2="156.329"/>
					
						<line style="fill:none;stroke:#D89491;stroke-width:0.6718;stroke-miterlimit:10;" x1="234.795" y1="157.821" x2="224.109" y2="161.093"/>
					
						<line style="fill:none;stroke:#D89491;stroke-width:0.6718;stroke-miterlimit:10;" x1="234.679" y1="162.387" x2="223.994" y2="165.658"/>
					
						<line style="fill:none;stroke:#D89491;stroke-width:0.6718;stroke-miterlimit:10;" x1="219.506" y1="156.3" x2="223.001" y2="168.026"/>
					<polygon style="fill:#F6B93B;" points="246.394,174.791 229.489,165.886 212.57,174.765 215.814,155.935 202.142,142.587 
						221.053,139.855 229.522,122.727 237.965,139.868 256.871,142.63 243.179,155.956 					"/>
					<path style="fill:#D68A85;" d="M222.035,156.171l-7.607,3.157c-1.149,0.477-2.467-0.068-2.944-1.217v0
						c-0.477-1.149,0.068-2.467,1.217-2.944l7.607-3.157c1.149-0.477,2.467,0.068,2.944,1.217l0,0
						C223.729,154.376,223.184,155.694,222.035,156.171z"/>
				</g>
			</g>
		</g>
		<path style="fill:#D68A85;" d="M169.433,234L169.433,234c4.401,2.758,10.205,1.427,12.963-2.974
			C192.264,213.684,202.132,196.342,212,179c-4-2.667-8-5.333-12-8c-11.18,16.679-22.361,33.358-33.541,50.037
			C163.701,225.438,165.032,231.242,169.433,234z"/>
		<g>
			<g>
				<path style="fill:#60A3BC;" d="M137.52,426.03v-28.31h-0.04V263.53h-4.12v162.5H95.12l3.45-106.93l0.38-21.49l0.01,0.01
					c-0.02-3.92,0.03-8.52,0.24-13.6c0.02-0.37,0.03-0.72,0.05-1.08c0.06-1.15,0.12-2.32,0.18-3.5c0.02-0.35,0.04-0.7,0.07-1.04
					c0.02-0.31,0.03-0.62,0.04-0.92c0.07-1.01,0.12-1.98,0.18-2.91c0.01-0.13,0.02-0.27,0.03-0.4c0.19-3,0.38-5.56,0.64-7.89
					c0.03-0.23,0.06-0.46,0.09-0.7c0.11-0.9,0.23-1.77,0.36-2.62c0.38-2.42,0.9-4.65,1.64-6.99c0.86-2.75,2.19-6.27,4.37-10.28
					c0.06-0.14,0.14-0.29,0.23-0.42c0.88-1.6,1.91-3.28,3.09-5.01c0.59-0.87,1.23-1.74,1.9-2.62c0.16-0.24,0.36-0.47,0.54-0.7
					c0.88-1.13,1.83-2.27,2.85-3.44c0.05-0.06,0.11-0.12,0.16-0.18v-20.39h39.39v20.15c0.13,0.14,0.25,0.28,0.37,0.42
					c2.05,2.31,3.8,4.58,5.28,6.76c1.28,1.88,2.39,3.7,3.34,5.43c0.07,0.14,0.15,0.27,0.23,0.41c2.04,3.83,3.31,7.22,4.14,9.87
					c0.72,2.31,1.22,4.5,1.61,6.89c0.54,3.31,0.84,6.98,1.15,11.71c0.01,0.14,0.01,0.27,0.02,0.42c0.08,1.38,0.17,2.86,0.27,4.45
					c0.56,9.94,0.52,18.43,0.38,24.14c-0.01,0.29-0.02,0.58-0.03,0.87c-0.03,1.36-0.08,2.54-0.12,3.52l3.8,118.06H137.52z"/>
				<g>
					<path style="fill:none;stroke:#FFFFFF;stroke-width:0.8957;stroke-miterlimit:10;" d="M99.656,270.569
						c1.275-0.163,2.979-0.491,4.875-1.192c1.179-0.436,2.433-1.017,3.705-1.793c6.361-3.88,8.745-9.938,9.445-11.967"/>
				</g>
				<g>
					<path style="fill:none;stroke:#FFFFFF;stroke-width:0.8957;stroke-miterlimit:10;" d="M170.522,271.465
						c-1.275-0.163-2.979-0.491-4.875-1.192c-1.179-0.436-2.433-1.017-3.705-1.793c-6.36-3.88-8.745-9.938-9.444-11.967"/>
				</g>
				
					<line style="fill:none;stroke:#FFFFFF;stroke-width:0.8957;stroke-miterlimit:10;" x1="129.731" y1="263.105" x2="141.076" y2="263.105"/>
				<path style="fill:#FF9F43;" d="M155.38,233.5h-39.92c0.05-0.06,0.11-0.12,0.16-0.18v-6.82h39.39v6.58
					C155.14,233.22,155.26,233.36,155.38,233.5z"/>
				<rect x="127" y="223" style="fill:none;stroke:#FFFFFF;stroke-width:0.8957;stroke-miterlimit:10;" width="17" height="14"/>
			</g>
			<g>
				<path style="fill:#3C6382;" d="M155.14,226.866c-13.137,0-26.273,0-39.41,0c-2.148-5.238-4.363-12.206-5.374-20.601
					c-1.789-14.851,1.047-27.02,3.374-34.237c12.311,0.067,24.621,0.134,36.931,0.201c3.09,7.012,7.06,18.547,7.165,33.14
					C157.889,213.955,156.597,221.274,155.14,226.866z"/>
			</g>
		</g>
		<path style="fill:#D68A85;" d="M83.744,231.946L83.744,231.946c3.05,4.204,8.931,5.14,13.135,2.09
			c15.638-12.393,31.275-24.785,46.913-37.178c-2.712-3.969-5.425-7.938-8.137-11.908c-16.607,11.287-33.214,22.574-49.821,33.861
			C81.63,221.861,80.694,227.742,83.744,231.946z"/>
		<g>
			<g>
				<path style="fill:#222F3E;" d="M136.037,210.206l14.582-3.706c1.202-0.305,1.928-1.527,1.623-2.728l-7.149-28.129
					c-0.305-1.201-1.527-1.928-2.728-1.622l-14.582,3.706c-1.201,0.305-1.928,1.527-1.623,2.728l7.149,28.129
					C133.614,209.784,134.835,210.511,136.037,210.206z"/>
				<path style="fill:#222F3E;" d="M132.081,179.59l7.397-1.88c0.815-0.207,1.308-1.036,1.101-1.852l-0.331-1.3l-10.35,2.63
					l0.331,1.3C130.436,179.304,131.265,179.797,132.081,179.59z"/>
			</g>
			<path style="fill:#D68A85;" d="M147.633,188.663l-17.72,4.503c-1.051,0.267-2.12-0.368-2.388-1.42l0,0
				c-0.267-1.051,0.368-2.12,1.42-2.388l17.72-4.503c1.051-0.267,2.12,0.368,2.388,1.42l0,0
				C149.321,187.327,148.685,188.395,147.633,188.663z"/>
			<path style="fill:#D68A85;" d="M148.601,192.47l-17.719,4.503c-1.051,0.267-2.12-0.369-2.388-1.42l0,0
				c-0.267-1.051,0.368-2.12,1.42-2.388l17.72-4.503c1.051-0.267,2.12,0.369,2.388,1.42l0,0
				C150.288,191.134,149.652,192.203,148.601,192.47z"/>
			<path style="fill:#D68A85;" d="M149.569,196.278l-17.72,4.503c-1.051,0.267-2.12-0.368-2.388-1.42l0,0
				c-0.267-1.051,0.369-2.12,1.42-2.387l17.719-4.503c1.051-0.267,2.12,0.368,2.388,1.42l0,0
				C151.256,194.941,150.62,196.01,149.569,196.278z"/>
			<path style="fill:#D68A85;" d="M150.536,200.085l-17.72,4.503c-1.051,0.267-2.12-0.368-2.387-1.42l0,0
				c-0.267-1.051,0.368-2.12,1.42-2.388l17.72-4.503c1.051-0.267,2.12,0.368,2.388,1.42l0,0
				C152.223,198.749,151.588,199.818,150.536,200.085z"/>
			<path style="fill:#D68A85;" d="M126.225,182.016l5.3,6.304c0.8,0.952,0.678,2.373-0.274,3.173l0,0
				c-0.952,0.801-2.373,0.678-3.173-0.275l-5.301-6.304c-0.801-0.952-0.678-2.373,0.275-3.173l0,0
				C124.003,180.941,125.424,181.064,126.225,182.016z"/>
		</g>
	</g>
</g>
</svg>
