<svg id="visual" viewBox="0 0 250 250" width="250" height="250" xmlns="http://www.w3.org/2000/svg" xmlns:xlink="http://www.w3.org/1999/xlink" version="1.1"><path d="M214 250L197 250L197 227L204 227L204 205L194 205L194 182L202 182L202 159L222 159L222 136L212 136L212 114L217 114L217 91L202 91L202 68L222 68L222 45L214 45L214 23L231 23L231 0L250 0L250 23L250 23L250 45L250 45L250 68L250 68L250 91L250 91L250 114L250 114L250 136L250 136L250 159L250 159L250 182L250 182L250 205L250 205L250 227L250 227L250 250L250 250Z" fill="#c3d1ff"></path><path d="M179 250L174 250L174 227L172 227L172 205L177 205L177 182L159 182L159 159L202 159L202 136L169 136L169 114L192 114L192 91L159 91L159 68L182 68L182 45L197 45L197 23L199 23L199 0L232 0L232 23L215 23L215 45L223 45L223 68L203 68L203 91L218 91L218 114L213 114L213 136L223 136L223 159L203 159L203 182L195 182L195 205L205 205L205 227L198 227L198 250L215 250Z" fill="#99abfa"></path><path d="M117 250L129 250L129 227L137 227L137 205L74 205L74 182L124 182L124 159L142 159L142 136L102 136L102 114L147 114L147 91L74 91L74 68L129 68L129 45L139 45L139 23L104 23L104 0L200 0L200 23L198 23L198 45L183 45L183 68L160 68L160 91L193 91L193 114L170 114L170 136L203 136L203 159L160 159L160 182L178 182L178 205L173 205L173 227L175 227L175 250L180 250Z" fill="#7384f2"></path><path d="M46 250L59 250L59 227L39 227L39 205L26 205L26 182L37 182L37 159L49 159L49 136L51 136L51 114L59 114L59 91L32 91L32 68L62 68L62 45L26 45L26 23L56 23L56 0L105 0L105 23L140 23L140 45L130 45L130 68L75 68L75 91L148 91L148 114L103 114L103 136L143 136L143 159L125 159L125 182L75 182L75 205L138 205L138 227L130 227L130 250L118 250Z" fill="#525be6"></path><path d="M0 250L0 250L0 227L0 227L0 205L0 205L0 182L0 182L0 159L0 159L0 136L0 136L0 114L0 114L0 91L0 91L0 68L0 68L0 45L0 45L0 23L0 23L0 0L57 0L57 23L27 23L27 45L63 45L63 68L33 68L33 91L60 91L60 114L52 114L52 136L50 136L50 159L38 159L38 182L27 182L27 205L40 205L40 227L60 227L60 250L47 250Z" fill="#372dd5"></path></svg>